<?xml version="1.0" encoding="utf-8"?>
<!-- Generator: Adobe Illustrator 26.0.3, SVG Export Plug-In . SVG Version: 6.00 Build 0)  -->
<svg version="1.1" id="Layer_1" xmlns="http://www.w3.org/2000/svg" xmlns:xlink="http://www.w3.org/1999/xlink" x="0px" y="0px"
	 viewBox="0 0 1000 1000" style="enable-background:new 0 0 1000 1000;" xml:space="preserve">
<style type="text/css">
	.st0{fill:#E4EAF1;stroke:#D7E0EA;stroke-width:7;}
	.st1{fill:#D7DFEA;stroke:#CAD4E3;stroke-width:5;}
	.st2{fill:#AFBDD5;}
	.st3{fill:#D7DFEA;}
	.st4{enable-background:new    ;}
	.st5{fill:#94A7C7;}
	.st6{display:none;}
</style>
<path class="st0" d="M51.9,787.2V665.8c0-4.9-4-8.9-8.9-8.9h-9.1c-4.9,0-8.9-4-8.9-8.9v-38c0-4.9,4-8.9,8.9-8.9H43
	c4.9,0,8.9-4,8.9-8.9V404.7c0-4.9-4-8.9-8.9-8.9H32.6c-4.5,0-8.2-3.3-8.9-7.7l-12.6-90.3c-0.7-4.9,2.8-9.5,7.7-10.1l605.4-75.8
	c4.5-0.6,7.8-4.4,7.8-8.9v-25.4c0-4.9,4-8.9,8.9-8.9h113.2c4.9,0,8.9,4,8.9,8.9v110c0,4.9,4,8.9,8.9,8.9l200.2,0.3
	c4.9,0,8.9,4,8.9,8.9v216.4c0,4.9-4,8.9-8.9,8.9H859.9c-4.9,0-8.9,4-8.9,9l0.4,247c0,4.9-4,9-8.9,9h-782
	C55.9,796.1,51.9,792.1,51.9,787.2z"/>
<path class="st1" d="M457.7,756.7H306.6c-4.5,0-8.1-3.6-8.1-8.1V338c0-4.5,3.6-8.1,8.1-8.1h151.1c4.5,0,8.1,3.6,8.1,8.1v410.6
	C465.8,753.1,462.2,756.7,457.7,756.7z"/>
<path class="st1" d="M503.8,662.7h209.5c4.5,0,8.1-3.6,8.1-8.1V473c0-4.5-3.6-8.1-8.1-8.1H503.8c-4.5,0-8.1,3.6-8.1,8.1v181.6
	C495.7,659.1,499.3,662.7,503.8,662.7z"/>
<path class="st1" d="M968.8,447.7v63.1c0,4.5-3.6,8.1-8.1,8.1H847.4c-4.5,0-8.1,3.6-8.1,8.1v248.9c0,4.5-3.6,8.1-8.1,8.1h-64.7
	c-4.5,0-8.1-3.6-8.1-8.1V447.7c0-4.5,3.6-8.1,8.1-8.1h194.2C965.2,439.6,968.8,443.2,968.8,447.7z"/>
<path class="st1" d="M968.5,388.8l0.3-71.7c0-4.5-3.6-8.1-8.1-8.1l-201.3,0.3c-4.5,0-8.1-3.6-8.1-8.1l-0.3-112
	c0-4.5-3.7-8.1-8.1-8.1l-58.5,0.3c-4.5,0-8.1,3.6-8.1,8.1v199.9c0,4.5,3.6,8.1,8.1,8.1l276-0.6C964.9,396.9,968.5,393.3,968.5,388.8
	z"/>
<path class="st1" d="M71.9,453h63.3c4.5,0,8.1,3.6,8.1,8.1v132.1c0,4.5-3.6,8.1-8.1,8.1H71.9c-4.5,0-8.1-3.6-8.1-8.1V461.1
	C63.8,456.6,67.5,453,71.9,453z"/>
<path class="st1" d="M490.6,311.1l6.5,52.9c0.5,4.3,4.3,7.4,8.6,7.1l119-8.7c4.2-0.3,7.5-3.8,7.5-8.1V281c0-4.9-4.2-8.6-9.1-8
	l-127.4,15.4c-4.4,0.5-8.4-2.6-9-6.9l-4.3-31.4c-0.6-4.4-4.6-7.4-8.9-6.9l-39.6,4.5c-5,0.6-8.2,5.5-6.9,10.3l11.5,40.2
	c1,3.5,4.2,5.9,7.8,5.9h36.1C486.7,304,490.1,307,490.6,311.1z"/>
<g>
	<path class="st2" d="M42,647.7h-0.9c-1.1,0-2.1-0.9-2.1-2.1v-33.2c0-1.1,0.9-2.1,2.1-2.1H42c1.1,0,2.1,0.9,2.1,2.1v33.2
		C44.1,646.7,43.1,647.7,42,647.7z"/>
</g>
<g>
	<path class="st2" d="M62.2,647.7h-0.9c-1.1,0-2.1-0.9-2.1-2.1v-33.2c0-1.1,0.9-2.1,2.1-2.1h0.9c1.1,0,2.1,0.9,2.1,2.1v33.2
		C64.3,646.7,63.3,647.7,62.2,647.7z"/>
</g>
<g>
	<path class="st2" d="M82.4,647.7h-0.9c-1.1,0-2.1-0.9-2.1-2.1v-33.2c0-1.1,0.9-2.1,2.1-2.1h0.9c1.1,0,2.1,0.9,2.1,2.1v33.2
		C84.5,646.7,83.6,647.7,82.4,647.7z"/>
</g>
<g>
	<path class="st2" d="M104,647.7h-0.9c-1.1,0-2.1-0.9-2.1-2.1v-33.2c0-1.1,0.9-2.1,2.1-2.1h0.9c1.1,0,2.1,0.9,2.1,2.1v33.2
		C106.1,646.7,105.2,647.7,104,647.7z"/>
</g>
<g>
	<path class="st2" d="M506.9,277.3l-0.9,0.1c-1.1,0.1-2.1-0.7-2.3-1.8l-3.9-33c-0.1-1.1,0.7-2.1,1.8-2.3l0.9-0.1
		c1.1-0.1,2.1,0.7,2.3,1.8l3.9,33C508.9,276.2,508.1,277.2,506.9,277.3z"/>
</g>
<g>
	<path class="st2" d="M528.9,275l-0.9,0.1c-1.1,0.1-2.1-0.7-2.3-1.8l-3.9-33c-0.1-1.1,0.7-2.1,1.8-2.3l0.9-0.1
		c1.1-0.1,2.1,0.7,2.3,1.8l3.9,33C530.8,273.8,530,274.8,528.9,275z"/>
</g>
<g>
	<path class="st2" d="M548.7,272.6l-0.9,0.1c-1.1,0.1-2.1-0.7-2.3-1.8l-3.9-33c-0.1-1.1,0.7-2.1,1.8-2.3l0.9-0.1
		c1.1-0.1,2.1,0.7,2.3,1.8l3.9,33C550.7,271.5,549.9,272.5,548.7,272.6z"/>
</g>
<g>
	<path class="st2" d="M567.9,270.1l-0.9,0.1c-1.1,0.1-2.1-0.7-2.3-1.8l-3.9-33c-0.1-1.1,0.7-2.1,1.8-2.3l0.9-0.1
		c1.1-0.1,2.1,0.7,2.3,1.8l3.9,33C569.8,268.9,569,270,567.9,270.1z"/>
</g>
<g>
	<path class="st2" d="M587,267.9l-0.9,0.1c-1.1,0.1-2.1-0.7-2.3-1.8l-3.9-33c-0.1-1.1,0.7-2.1,1.8-2.3l0.9-0.1
		c1.1-0.1,2.1,0.7,2.3,1.8l3.9,33C588.9,266.8,588.1,267.8,587,267.9z"/>
</g>
<g>
	<path class="st2" d="M606.2,265.7l-0.9,0.1c-1.1,0.1-2.1-0.7-2.3-1.8l-3.9-33c-0.1-1.1,0.7-2.1,1.8-2.3l0.9-0.1
		c1.1-0.1,2.1,0.7,2.3,1.8l3.9,33C608.1,264.5,607.3,265.6,606.2,265.7z"/>
</g>
<g>
	<path class="st3" d="M95.4,750.4c1.7,0,3,1.4,3,3V786c0,1.7-1.3,3-3,3h-11c-1.7,0-3-1.3-3-3v-32.6c0-1.6,1.3-3,3-3H95.4z"/>
</g>
<g>
	<path class="st3" d="M115.1,750.4c1.7,0,3,1.4,3,3V786c0,1.7-1.3,3-3,3h-11c-1.7,0-3-1.3-3-3v-32.6c0-1.6,1.3-3,3-3H115.1z"/>
</g>
<g>
	<path class="st3" d="M115.1,709.1c1.7,0,3,1.3,3,3v32.6c0,1.6-1.3,3-3,3h-11c-1.7,0-3-1.4-3-3v-32.6c0-1.7,1.3-3,3-3H115.1z"/>
</g>
<g>
	<path class="st3" d="M95.4,709.1c1.7,0,3,1.3,3,3v32.6c0,1.6-1.3,3-3,3h-11c-1.7,0-3-1.4-3-3v-32.6c0-1.7,1.3-3,3-3H95.4z"/>
</g>
<g>
	<path class="st3" d="M169.7,750.4c1.7,0,3,1.4,3,3V786c0,1.7-1.3,3-3,3h-11c-1.7,0-3-1.3-3-3v-32.6c0-1.6,1.3-3,3-3H169.7z"/>
</g>
<g>
	<path class="st3" d="M189.4,750.4c1.6,0,3,1.4,3,3V786c0,1.7-1.4,3-3,3h-11c-1.6,0-3-1.3-3-3v-32.6c0-1.6,1.4-3,3-3H189.4z"/>
</g>
<g>
	<path class="st3" d="M189.4,709.1c1.6,0,3,1.3,3,3v32.6c0,1.6-1.4,3-3,3h-11c-1.6,0-3-1.4-3-3v-32.6c0-1.7,1.4-3,3-3H189.4z"/>
</g>
<g>
	<path class="st3" d="M169.7,709.1c1.7,0,3,1.3,3,3v32.6c0,1.6-1.3,3-3,3h-11c-1.7,0-3-1.4-3-3v-32.6c0-1.7,1.3-3,3-3H169.7z"/>
</g>
<g>
	<path class="st3" d="M189.4,667.9c1.6,0,3,1.4,3,3v32.6c0,1.7-1.4,3-3,3h-11c-1.6,0-3-1.3-3-3v-32.6c0-1.6,1.4-3,3-3H189.4z"/>
</g>
<g>
	<path class="st3" d="M169.7,667.9c1.7,0,3,1.4,3,3v32.6c0,1.7-1.3,3-3,3h-11c-1.7,0-3-1.3-3-3v-32.6c0-1.6,1.3-3,3-3H169.7z"/>
</g>
<g>
	<path class="st3" d="M219.5,362.4c0-1.6-1.4-3-3-3h-15.6c-1.7,0-4.4,0-6,0h-11c-1.7,0-3,1.4-3,3v11c0,1.6,0,4.4,0,6V395
		c0,1.6,1.3,3,3,3h11c1.6,0,3-1.4,3-3v-15.6c0-1.6,1.3-3,3-3h15.6c1.6,0,3-1.4,3-3V362.4z"/>
</g>
<g>
	<path class="st3" d="M228.8,353c0,1.6,1.3,3,3,3h15.6c1.6,0,4.3,0,6,0h11c1.6,0,3-1.4,3-3v-11c0-1.6,0-4.4,0-6v-15.6
		c0-1.6-1.4-3-3-3h-11c-1.7,0-3,1.4-3,3V336c0,1.6-1.4,3-3,3h-15.6c-1.7,0-3,1.4-3,3L228.8,353L228.8,353z"/>
</g>
<g>
	<path class="st3" d="M183.8,317.4c-1.6,0-3,1.3-3,3V336c0,1.6,0,4.3,0,6v11c0,1.6,1.4,3,3,3h11c1.7,0,4.4,0,6,0h15.6
		c1.7,0,3-1.4,3-3v-11c0-1.6-1.4-3-3-3h-15.6c-1.7,0-3-1.4-3-3v-15.6c0-1.6-1.4-3-3-3H183.8z"/>
</g>
<g>
	<path class="st3" d="M364.2,255.3c-0.2-1.6-1.7-2.8-3.4-2.6l-15.5,2c-1.6,0.2-4.3,0.5-6,0.8l-10.9,1.4c-1.6,0.2-2.8,1.7-2.6,3.4
		l1.4,10.9c0.2,1.6,0.5,4.3,0.8,6l2,15.5c0.2,1.6,1.7,2.8,3.4,2.6l10.9-1.4c1.6-0.2,2.8-1.7,2.6-3.4l-2-15.5c-0.2-1.6,1-3.1,2.6-3.4
		l15.5-2c1.6-0.2,2.8-1.7,2.6-3.4L364.2,255.3z"/>
</g>
<g>
	<path class="st3" d="M408.1,285.7c1.6-0.2,2.8-1.7,2.6-3.4l-2-15.5c-0.2-1.6-0.5-4.3-0.8-6l-1.4-10.9c-0.2-1.6-1.7-2.8-3.4-2.6
		l-10.9,1.4c-1.6,0.2-4.3,0.5-6,0.8l-15.5,2c-1.6,0.2-2.8,1.7-2.6,3.4l1.4,10.9c0.2,1.6,1.7,2.8,3.4,2.6l15.5-2
		c1.6-0.2,3.1,1,3.4,2.6l2,15.5c0.2,1.6,1.7,2.8,3.4,2.6L408.1,285.7z"/>
</g>
<g>
	<path class="st3" d="M272.9,267c-0.2-1.6-1.7-2.8-3.4-2.6l-15.5,2c-1.6,0.2-4.3,0.5-6,0.8l-10.9,1.4c-1.6,0.2-2.8,1.7-2.6,3.4
		l1.4,10.9c0.2,1.6,0.5,4.3,0.8,6l2,15.5c0.2,1.6,1.7,2.8,3.4,2.6l10.9-1.4c1.6-0.2,2.8-1.7,2.6-3.4l-2-15.5c-0.2-1.6,1-3.1,2.6-3.4
		l15.5-2c1.6-0.2,2.8-1.7,2.6-3.4L272.9,267z"/>
</g>
<g>
	<path class="st3" d="M316.7,297.4c1.6-0.2,2.8-1.7,2.6-3.4l-2-15.5c-0.2-1.6-0.5-4.3-0.8-6l-1.4-10.9c-0.2-1.6-1.7-2.8-3.4-2.6
		l-10.9,1.4c-1.6,0.2-4.3,0.5-6,0.8l-15.5,2c-1.6,0.2-2.8,1.7-2.6,3.4l1.4,10.9c0.2,1.6,1.7,2.8,3.4,2.6l15.5-2
		c1.6-0.2,3.1,1,3.4,2.6l2,15.5c0.2,1.6,1.7,2.8,3.4,2.6L316.7,297.4z"/>
</g>
<g>
	<path class="st3" d="M264.4,398c1.6,0,3-1.4,3-3v-15.6c0-1.6,0-4.4,0-6v-11c0-1.6-1.4-3-3-3h-11c-1.7,0-4.4,0-6,0h-15.6
		c-1.7,0-3,1.4-3,3v11c0,1.6,1.3,3,3,3h15.6c1.6,0,3,1.4,3,3V395c0,1.6,1.4,3,3,3H264.4z"/>
</g>
<g>
	<path class="st3" d="M219.5,484.2c0-1.6-1.4-3-3-3h-15.6c-1.7,0-4.4,0-6,0h-11c-1.7,0-3,1.4-3,3v11c0,1.7,0,4.4,0,6v15.6
		c0,1.7,1.3,3,3,3h11c1.6,0,3-1.3,3-3v-15.6c0-1.6,1.3-3,3-3h15.6c1.6,0,3-1.4,3-3V484.2z"/>
</g>
<g>
	<path class="st3" d="M228.8,474.8c0,1.6,1.3,3,3,3h15.6c1.6,0,4.3,0,6,0h11c1.6,0,3-1.4,3-3v-11c0-1.6,0-4.4,0-6v-15.6
		c0-1.6-1.4-3-3-3h-11c-1.7,0-3,1.4-3,3v15.6c0,1.6-1.4,3-3,3h-15.6c-1.7,0-3,1.4-3,3L228.8,474.8L228.8,474.8z"/>
</g>
<g>
	<path class="st3" d="M183.8,439.2c-1.6,0-3,1.4-3,3v15.6c0,1.6,0,4.4,0,6v11c0,1.6,1.4,3,3,3h11c1.7,0,4.4,0,6,0h15.6
		c1.7,0,3-1.3,3-3v-11c0-1.6-1.4-3-3-3h-15.6c-1.7,0-3-1.4-3-3v-15.6c0-1.6-1.4-3-3-3H183.8z"/>
</g>
<g>
	<path class="st3" d="M264.4,519.8c1.6,0,3-1.3,3-3v-15.6c0-1.6,0-4.3,0-6v-11c0-1.6-1.4-3-3-3h-11c-1.7,0-4.4,0-6,0h-15.6
		c-1.7,0-3,1.4-3,3v11c0,1.7,1.3,3,3,3h15.6c1.6,0,3,1.4,3,3v15.6c0,1.7,1.4,3,3,3H264.4z"/>
</g>
<g>
	<path class="st3" d="M219.5,606c0-1.7-1.4-3-3-3h-15.6c-1.7,0-4.4,0-6,0h-11c-1.7,0-3,1.3-3,3v11c0,1.7,0,4.3,0,6v15.6
		c0,1.7,1.3,3,3,3h11c1.6,0,3-1.3,3-3V623c0-1.7,1.3-3,3-3h15.6c1.6,0,3-1.3,3-3V606z"/>
</g>
<g>
	<path class="st3" d="M228.8,596.6c0,1.6,1.3,3,3,3h15.6c1.6,0,4.3,0,6,0h11c1.6,0,3-1.4,3-3v-11c0-1.7,0-4.4,0-6V564
		c0-1.7-1.4-3-3-3h-11c-1.7,0-3,1.3-3,3v15.6c0,1.6-1.4,3-3,3h-15.6c-1.7,0-3,1.3-3,3L228.8,596.6L228.8,596.6z"/>
</g>
<g>
	<path class="st3" d="M183.8,561c-1.6,0-3,1.3-3,3v15.6c0,1.6,0,4.3,0,6v11c0,1.6,1.4,3,3,3h11c1.7,0,4.4,0,6,0h15.6
		c1.7,0,3-1.4,3-3v-11c0-1.7-1.4-3-3-3h-15.6c-1.7,0-3-1.4-3-3V564c0-1.7-1.4-3-3-3H183.8z"/>
</g>
<g>
	<path class="st3" d="M264.4,641.6c1.6,0,3-1.3,3-3V623c0-1.7,0-4.3,0-6v-11c0-1.7-1.4-3-3-3h-11c-1.7,0-4.4,0-6,0h-15.6
		c-1.7,0-3,1.3-3,3v11c0,1.7,1.3,3,3,3h15.6c1.6,0,3,1.3,3,3v15.6c0,1.7,1.4,3,3,3H264.4z"/>
</g>
<g>
	<path class="st3" d="M111.9,362.4c0-1.6-1.3-3-3-3H93.3c-1.7,0-4.3,0-6,0h-11c-1.7,0-3,1.4-3,3v11c0,1.6,0,4.4,0,6V395
		c0,1.6,1.3,3,3,3h11c1.7,0,3-1.4,3-3v-15.6c0-1.6,1.3-3,3-3h15.6c1.7,0,3-1.4,3-3V362.4z"/>
</g>
<g>
	<path class="st3" d="M121.2,353c0,1.6,1.3,3,3,3h15.6c1.6,0,4.4,0,6,0h11c1.6,0,3-1.4,3-3v-11c0-1.6,0-4.4,0-6v-15.6
		c0-1.6-1.4-3-3-3h-11c-1.6,0-3,1.4-3,3V336c0,1.6-1.4,3-3,3h-15.6c-1.7,0-3,1.4-3,3C121.2,342,121.2,353,121.2,353z"/>
</g>
<g>
	<path class="st3" d="M76.3,317.4c-1.7,0-3,1.3-3,3V336c0,1.6,0,4.3,0,6v11c0,1.6,1.3,3,3,3h11c1.7,0,4.3,0,6,0h15.6
		c1.7,0,3-1.4,3-3v-11c0-1.6-1.3-3-3-3H93.3c-1.7,0-3-1.4-3-3v-15.6c0-1.6-1.4-3-3-3H76.3z"/>
</g>
<g>
	<path class="st3" d="M108.2,444.7c0,1.6,1.3,3,3,3h15.6c1.7,0,4.4,0,6,0h11c1.7,0,3-1.4,3-3v-11c0-1.6,0-4.4,0-6v-15.6
		c0-1.6-1.3-3-3-3h-11c-1.6,0-3,1.4-3,3v15.6c0,1.6-1.3,3-3,3h-15.6c-1.6,0-3,1.4-3,3C108.2,433.7,108.2,444.7,108.2,444.7z"/>
</g>
<g>
	<path class="st3" d="M63.3,409.1c-1.7,0-3,1.4-3,3v15.6c0,1.6,0,4.4,0,6v11c0,1.6,1.3,3,3,3h11c1.7,0,4.3,0,6,0h15.6
		c1.7,0,3-1.4,3-3v-11c0-1.6-1.3-3-3-3H80.3c-1.7,0-3-1.4-3-3v-15.6c0-1.6-1.4-3-3-3H63.3z"/>
</g>
<g>
	<path class="st3" d="M156.9,398c1.6,0,3-1.4,3-3v-15.6c0-1.6,0-4.4,0-6v-11c0-1.6-1.4-3-3-3h-11c-1.6,0-4.4,0-6,0h-15.6
		c-1.7,0-3,1.4-3,3v11c0,1.6,1.3,3,3,3h15.6c1.6,0,3,1.4,3,3V395c0,1.6,1.4,3,3,3H156.9z"/>
</g>
<g>
	<path class="st3" d="M263.7,667.9c1.6,0,3,1.4,3,3v32.6c0,1.7-1.4,3-3,3h-11c-1.7,0-3-1.3-3-3v-32.6c0-1.6,1.3-3,3-3H263.7z"/>
</g>
<g>
	<path class="st3" d="M263.7,750.4c1.6,0,3,1.4,3,3V786c0,1.7-1.4,3-3,3h-11c-1.7,0-3-1.3-3-3v-32.6c0-1.6,1.3-3,3-3H263.7z"/>
</g>
<g>
	<path class="st3" d="M263.7,709.1c1.6,0,3,1.3,3,3v32.6c0,1.6-1.4,3-3,3h-11c-1.7,0-3-1.4-3-3v-32.6c0-1.7,1.3-3,3-3H263.7z"/>
</g>
<g>
	<g>
		<g>
			<path class="st2" d="M642.6,504.9c-1,0-1.7,0.8-1.7,1.7s0.8,1.7,1.7,1.7s1.7-0.8,1.7-1.7S643.6,504.9,642.6,504.9z"/>
			<path class="st2" d="M642.6,498c-1,0-1.7,0.8-1.7,1.7s0.8,1.7,1.7,1.7s1.7-0.8,1.7-1.7S643.6,498,642.6,498z"/>
			<path class="st2" d="M644.3,475.5h-31.1c-2.9,0-5.2,2.3-5.2,5.2v31.1c0,2.9,2.3,5.2,5.2,5.2h3.5h10.4h10.4h6.9
				c2.9,0,5.2-2.3,5.2-5.2v-31.1C649.5,477.8,647.2,475.5,644.3,475.5z M625.3,513.5h-6.9v-24.2h6.9V513.5L625.3,513.5z
				 M628.8,513.5v-24.2h6.9v24.2H628.8L628.8,513.5z M646.1,511.8c0,1-0.8,1.7-1.7,1.7h-5.2v-24.2c0-1.9-1.5-3.5-3.5-3.5h-8.6h-8.6
				c-1.9,0-3.5,1.5-3.5,3.5v24.2h-1.7c-1,0-1.7-0.8-1.7-1.7v-31.1c0-1,0.8-1.7,1.7-1.7h31.1c1,0,1.7,0.8,1.7,1.7V511.8z"/>
			<path class="st2" d="M632.2,480.7h-10.4c-1,0-1.7,0.8-1.7,1.7s0.8,1.7,1.7,1.7h10.4c1,0,1.7-0.8,1.7-1.7S633.2,480.7,632.2,480.7
				z"/>
		</g>
	</g>
</g>
<g>
	<g>
		<g>
			<path class="st2" d="M690.1,504.9c-1,0-1.7,0.8-1.7,1.7s0.8,1.7,1.7,1.7s1.7-0.8,1.7-1.7S691.1,504.9,690.1,504.9z"/>
			<path class="st2" d="M690.1,498c-1,0-1.7,0.8-1.7,1.7s0.8,1.7,1.7,1.7s1.7-0.8,1.7-1.7S691.1,498,690.1,498z"/>
			<path class="st2" d="M691.8,475.5h-31.1c-2.9,0-5.2,2.3-5.2,5.2v31.1c0,2.9,2.3,5.2,5.2,5.2h3.5h10.4H685h6.9
				c2.9,0,5.2-2.3,5.2-5.2v-31.1C697,477.8,694.7,475.5,691.8,475.5z M672.8,513.5h-6.9v-24.2h6.9V513.5L672.8,513.5z M676.3,513.5
				v-24.2h6.9v24.2H676.3L676.3,513.5z M693.6,511.8c0,1-0.8,1.7-1.7,1.7h-5.2v-24.2c0-1.9-1.5-3.5-3.5-3.5h-8.6H666
				c-1.9,0-3.5,1.5-3.5,3.5v24.2h-1.7c-1,0-1.7-0.8-1.7-1.7v-31.1c0-1,0.8-1.7,1.7-1.7h31.1c1,0,1.7,0.8,1.7,1.7V511.8z"/>
			<path class="st2" d="M679.7,480.7h-10.4c-1,0-1.7,0.8-1.7,1.7s0.8,1.7,1.7,1.7h10.4c1,0,1.7-0.8,1.7-1.7S680.7,480.7,679.7,480.7
				z"/>
		</g>
	</g>
</g>
<g class="st4">
	<path class="st5" d="M83.1,688.9c0-2.9,3-4.4,5.2-5.9c1.4-1,2.1-1.8,2.1-3c0-1.5-0.9-2.3-2.2-2.3c-1.4,0-2.4,1-2.7,2.8l-2.4-0.6
		c0.4-2.5,2.1-4.4,5.1-4.4c2.9,0,4.9,1.6,4.9,4.5c0,2.1-1.1,3.4-3.1,4.7c-2.4,1.6-4.1,2.8-4.1,3.9v0.1H93v2.2l-10,0V688.9z"/>
	<path class="st5" d="M95.6,683.3c0-4.8,2.1-7.7,5.6-7.7c3.5,0,5.6,2.9,5.6,7.7c0,4.8-2.1,7.8-5.6,7.8
		C97.7,691.1,95.6,688.1,95.6,683.3z M104.1,683.3c0-3.5-1-5.6-3-5.6c-1.9,0-2.9,2.1-2.9,5.6c0,3.5,1,5.6,2.9,5.6
		C103.1,688.9,104.1,686.8,104.1,683.3z"/>
	<path class="st5" d="M114.5,679.2l0.3,0c-0.8,1.5-2.7,2.4-5.1,2.4v-2.2c2.5,0,4.6-1.6,4.8-3.7h2.6v15h-2.6V679.2z"/>
</g>
<g class="st4">
	<path class="st5" d="M595.3,784.8c0-2.9,3-4.4,5.2-5.9c1.4-1,2.1-1.8,2.1-3c0-1.5-0.9-2.3-2.2-2.3c-1.4,0-2.4,1-2.7,2.8l-2.4-0.6
		c0.4-2.5,2.1-4.4,5.1-4.4c2.9,0,4.9,1.6,4.9,4.5c0,2.1-1.1,3.4-3.1,4.7c-2.4,1.6-4.1,2.8-4.1,3.9v0.1h7.3v2.2l-10,0V784.8z"/>
	<path class="st5" d="M613.6,775.2l0.3,0c-0.8,1.5-2.7,2.4-5.1,2.4v-2.2c2.5,0,4.6-1.6,4.8-3.7h2.6v15h-2.6V775.2z"/>
	<path class="st5" d="M629,773.5l0.2,0.5h-8v-2.2h10.6v1.8c-3.7,4.5-5,7.4-5.7,13.2h-2.7C624.2,781.3,625.6,777.5,629,773.5z"/>
</g>
<g id="schematic_1" class="st6">
	
		<image style="display:inline;overflow:visible;opacity:0.38;enable-background:new    ;" width="4975" height="3518" xlink:href="2086045C2262D215.png"  transform="matrix(0.2777 0 0 0.2777 -218.388 45.7711)">
	</image>
</g>
<g id="schematic_2" class="st6">
	
		<image style="display:inline;overflow:visible;opacity:0.55;enable-background:new    ;" width="3510" height="4963" xlink:href="2086045C2262D216.png"  transform="matrix(1.705933e-17 -0.2786 0.2786 1.705933e-17 -213.3104 1017.1368)">
	</image>
</g>
<g>
	<path class="st3" d="M517.8,672.9c1.6,0,3,1.2,3,2.6v22.6c0,1.5-1.4,2.6-3,2.6h-11c-1.7,0-3-1.1-3-2.6v-22.6c0-1.4,1.3-2.6,3-2.6
		H517.8z"/>
</g>
<g>
	<path class="st3" d="M517.8,702.8c1.6,0,3,1.2,3,2.6V728c0,1.5-1.4,2.6-3,2.6h-11c-1.7,0-3-1.1-3-2.6v-22.6c0-1.4,1.3-2.6,3-2.6
		L517.8,702.8L517.8,702.8z"/>
</g>
<g>
	<path class="st3" d="M517.8,732.7c1.6,0,3,1.2,3,2.6v22.6c0,1.5-1.4,2.6-3,2.6h-11c-1.7,0-3-1.1-3-2.6v-22.6c0-1.4,1.3-2.6,3-2.6
		H517.8z"/>
</g>
<g>
	<path class="st3" d="M718.4,672.9c1.6,0,3,1.2,3,2.6v22.6c0,1.5-1.4,2.6-3,2.6h-11c-1.7,0-3-1.1-3-2.6v-22.6c0-1.4,1.3-2.6,3-2.6
		H718.4z"/>
</g>
<g>
	<path class="st3" d="M718.4,702.8c1.6,0,3,1.2,3,2.6V728c0,1.5-1.4,2.6-3,2.6h-11c-1.7,0-3-1.1-3-2.6v-22.6c0-1.4,1.3-2.6,3-2.6
		L718.4,702.8L718.4,702.8z"/>
</g>
<g>
	<path class="st3" d="M718.4,732.7c1.6,0,3,1.2,3,2.6v22.6c0,1.5-1.4,2.6-3,2.6h-11c-1.7,0-3-1.1-3-2.6v-22.6c0-1.4,1.3-2.6,3-2.6
		H718.4z"/>
</g>
<g>
	<path class="st3" d="M571.1,672.9c1.6,0,3,1.2,3,2.6v22.6c0,1.5-1.4,2.6-3,2.6h-11c-1.7,0-3-1.1-3-2.6v-22.6c0-1.4,1.3-2.6,3-2.6
		H571.1z"/>
</g>
<g>
	<path class="st3" d="M571.1,702.8c1.6,0,3,1.2,3,2.6V728c0,1.5-1.4,2.6-3,2.6h-11c-1.7,0-3-1.1-3-2.6v-22.6c0-1.4,1.3-2.6,3-2.6
		L571.1,702.8L571.1,702.8z"/>
</g>
<g>
	<path class="st3" d="M571.1,732.7c1.6,0,3,1.2,3,2.6v22.6c0,1.5-1.4,2.6-3,2.6h-11c-1.7,0-3-1.1-3-2.6v-22.6c0-1.4,1.3-2.6,3-2.6
		H571.1z"/>
</g>
<g>
	<path class="st3" d="M590.7,672.9c1.6,0,3,1.2,3,2.6v22.6c0,1.5-1.4,2.6-3,2.6h-11c-1.7,0-3-1.1-3-2.6v-22.6c0-1.4,1.3-2.6,3-2.6
		H590.7z"/>
</g>
<g>
	<path class="st3" d="M590.7,702.8c1.6,0,3,1.2,3,2.6V728c0,1.5-1.4,2.6-3,2.6h-11c-1.7,0-3-1.1-3-2.6v-22.6c0-1.4,1.3-2.6,3-2.6
		L590.7,702.8L590.7,702.8z"/>
</g>
<g>
	<path class="st3" d="M590.7,732.7c1.6,0,3,1.2,3,2.6v22.6c0,1.5-1.4,2.6-3,2.6h-11c-1.7,0-3-1.1-3-2.6v-22.6c0-1.4,1.3-2.6,3-2.6
		H590.7z"/>
</g>
<g>
	<path class="st3" d="M644.8,672.9c1.6,0,3,1.2,3,2.6v22.6c0,1.5-1.4,2.6-3,2.6h-11c-1.7,0-3-1.1-3-2.6v-22.6c0-1.4,1.3-2.6,3-2.6
		H644.8z"/>
</g>
<g>
	<path class="st3" d="M644.8,702.8c1.6,0,3,1.2,3,2.6V728c0,1.5-1.4,2.6-3,2.6h-11c-1.7,0-3-1.1-3-2.6v-22.6c0-1.4,1.3-2.6,3-2.6
		L644.8,702.8L644.8,702.8z"/>
</g>
<g>
	<path class="st3" d="M644.8,732.7c1.6,0,3,1.2,3,2.6v22.6c0,1.5-1.4,2.6-3,2.6h-11c-1.7,0-3-1.1-3-2.6v-22.6c0-1.4,1.3-2.6,3-2.6
		H644.8z"/>
</g>
<g>
	<path class="st3" d="M664.3,672.9c1.6,0,3,1.2,3,2.6v22.6c0,1.5-1.4,2.6-3,2.6h-11c-1.7,0-3-1.1-3-2.6v-22.6c0-1.4,1.3-2.6,3-2.6
		H664.3z"/>
</g>
<g>
	<path class="st3" d="M664.3,702.8c1.6,0,3,1.2,3,2.6V728c0,1.5-1.4,2.6-3,2.6h-11c-1.7,0-3-1.1-3-2.6v-22.6c0-1.4,1.3-2.6,3-2.6
		L664.3,702.8L664.3,702.8z"/>
</g>
<g>
	<path class="st3" d="M664.3,732.7c1.6,0,3,1.2,3,2.6v22.6c0,1.5-1.4,2.6-3,2.6h-11c-1.7,0-3-1.1-3-2.6v-22.6c0-1.4,1.3-2.6,3-2.6
		H664.3z"/>
</g>
</svg>
