<?xml version="1.0" encoding="utf-8"?>
<!-- Generator: Adobe Illustrator 26.0.3, SVG Export Plug-In . SVG Version: 6.00 Build 0)  -->
<svg version="1.1" xmlns="http://www.w3.org/2000/svg" xmlns:xlink="http://www.w3.org/1999/xlink" x="0px" y="0px"
	 viewBox="0 0 1000 1000" style="enable-background:new 0 0 1000 1000;" xml:space="preserve">
<style type="text/css">
	.st0{fill:#E4EAF1;stroke:#D7E0EA;stroke-width:7;}
	.st1{fill:#D7DFEA;stroke:#CAD4E3;stroke-width:5;}
	.st2{fill:#CAD4E3;}
	.st3{fill:#94A7C7;}
	.st4{font-family:'GranthaSangamMN-Bold';}
	.st5{font-size:22px;}
	.st6{fill:#D7DFEA;}
	.st7{fill:#AFBDD5;}
	.st8{display:none;}
</style>
<g id="floor">
	<path class="st0" d="M624.4,211.9c4.5-0.6,7.8-4.4,7.8-8.9v-25.4c0-4.9,4-8.9,8.9-8.9h113.2c4.9,0,8.9,4,8.9,8.9v110
		c0,4.9,4,8.9,8.9,8.9l200.2,0.3c4.9,0,8.9,4,8.9,8.9v216.4c0,4.9-4,8.9-8.9,8.9l-112.2,0c-4.9,0-8.9,4-8.9,9l0.4,247
		c0,4.9-4,9-8.9,9h-782c-4.9,0-8.9-4-8.9-8.9V665.8c0-4.9-4-8.9-8.9-8.9h-9.1c-4.9,0-8.9-4-8.9-8.9v-38c0-4.9,4-8.9,8.9-8.9h9.1
		c4.9,0,8.9-4,8.9-8.9l0-301.3c0-4.1,3.1-7.6,7.2-8.1L624.4,211.9z"/>
</g>
<g id="rooms">
	<path class="st1" d="M960.7,309l-201.3,0.3c-4.5,0-8.1-3.6-8.1-8.1l-0.3-112c0-4.5-3.7-8.1-8.1-8.1l-67.9,0.2l-23.1-0.1
		c-4.5,0-8.1,3.6-8.1,8.1l-0.3,112c0,4.5-3.6,8.1-8.1,8.1l-119.3,0.4c-4.5,0-8.1,3.6-8.1,8.1l0.3,71.7c0,4.4,3.6,8,8.1,8.1
		l136.3-0.2c0.3,0,0.5,0,0.8,0l8.6,0l79.4,0.2c0.8,0,1.6-0.1,2.3-0.3l216.8-0.5c4.4,0,8.1-3.6,8.1-8.1l0.3-71.7
		C968.8,312.7,965.2,309,960.7,309z"/>
	<path class="st1" d="M450.9,755.3h-79c-4.5,0-8.1-3.6-8.1-8.1V338.3c0-4.5,3.6-8.1,8.1-8.1h79c4.5,0,8.1,3.6,8.1,8.1v408.9
		C459,751.7,455.3,755.3,450.9,755.3z"/>
	<path class="st1" d="M503.8,604.1h209.5c4.5,0,8.1-3.6,8.1-8.1V473c0-4.5-3.6-8.1-8.1-8.1H503.8c-4.5,0-8.1,3.6-8.1,8.1v123
		C495.7,600.5,499.3,604.1,503.8,604.1z"/>
	<path class="st1" d="M968.8,447.7v63.1c0,4.5-3.6,8.1-8.1,8.1H847.4c-4.5,0-8.1,3.6-8.1,8.1v251.6c0,4.5-3.6,8.1-8.1,8.1h-64.7
		c-4.5,0-8.1-3.6-8.1-8.1V447.7c0-4.5,3.6-8.1,8.1-8.1h194.2C965.2,439.6,968.8,443.2,968.8,447.7z"/>
	<path class="st1" d="M71.9,291.3l63.3-8.1c4.5,0,8.1,3.6,8.1,8.1v297.8c0,4.5-3.6,8.1-8.1,8.1H71.9c-4.5,0-8.1-3.6-8.1-8.1V299.4
		C63.8,294.9,67.5,291.3,71.9,291.3z"/>
	<path class="st1" d="M71.9,662.7h63.3c4.5,0,8.1,3,8.1,6.6v108.2c0,3.7-3.6,6.6-8.1,6.6H71.9c-4.5,0-8.1-3-8.1-6.6V669.4
		C63.8,665.7,67.5,662.7,71.9,662.7z"/>
	<g>
		<path class="st2" d="M42,647.7h-0.9c-1.1,0-2.1-0.9-2.1-2.1v-33.2c0-1.1,0.9-2.1,2.1-2.1H42c1.1,0,2.1,0.9,2.1,2.1v33.2
			C44.1,646.7,43.1,647.7,42,647.7z"/>
	</g>
	<g>
		<path class="st2" d="M62.2,647.7h-0.9c-1.1,0-2.1-0.9-2.1-2.1v-33.2c0-1.1,0.9-2.1,2.1-2.1h0.9c1.1,0,2.1,0.9,2.1,2.1v33.2
			C64.3,646.7,63.3,647.7,62.2,647.7z"/>
	</g>
	<g>
		<path class="st2" d="M82.4,647.7h-0.9c-1.1,0-2.1-0.9-2.1-2.1v-33.2c0-1.1,0.9-2.1,2.1-2.1h0.9c1.1,0,2.1,0.9,2.1,2.1v33.2
			C84.5,646.7,83.6,647.7,82.4,647.7z"/>
	</g>
	<g>
		<path class="st2" d="M104,647.7h-0.9c-1.1,0-2.1-0.9-2.1-2.1v-33.2c0-1.1,0.9-2.1,2.1-2.1h0.9c1.1,0,2.1,0.9,2.1,2.1v33.2
			C106.1,646.7,105.2,647.7,104,647.7z"/>
	</g>
	<g>
		<path class="st2" d="M688.8,322.8v-0.9c0-1.1,0.9-2.1,2.1-2.1H724c1.1,0,2.1,0.9,2.1,2.1v0.9c0,1.1-0.9,2.1-2.1,2.1h-33.2
			C689.7,324.8,688.8,323.9,688.8,322.8z"/>
	</g>
	<path class="st2" d="M688.5,344.8v-0.9c0-1.1,0.9-2.1,2.1-2.1h33.2c1.1,0,2.1,0.9,2.1,2.1v0.9c0,1.1-0.9,2.1-2.1,2.1h-33.2
		C689.5,346.8,688.5,345.9,688.5,344.8z"/>
	<g>
		<path class="st2" d="M688.6,364.8v-0.9c0-1.1,0.9-2.1,2.1-2.1h33.2c1.1,0,2.1,0.9,2.1,2.1v0.9c0,1.1-0.9,2.1-2.1,2.1h-33.2
			C689.5,366.9,688.6,365.9,688.6,364.8z"/>
	</g>
	<g>
		<path class="st2" d="M688.8,384.1v-0.9c0-1.1,0.9-2.1,2.1-2.1h33.2c1.1,0,2.1,0.9,2.1,2.1v0.9c0,1.1-0.9,2.1-2.1,2.1h-33.2
			C689.8,386.1,688.8,385.2,688.8,384.1z"/>
	</g>
	<path class="st1" d="M486.6,289.3"/>
</g>
<g id="numbers">
	<text transform="matrix(1 0 0 1 589.1664 784.2189)" class="st3 st4 st5">510</text>
	<text transform="matrix(1 0 0 1 151.8728 784.4985)" class="st3 st4 st5">501</text>
</g>
<g id="desks">
	<g>
		<path class="st6" d="M275.5,720.5c0-1.6,1.4-3,3-3h32.6c1.7,0,3,1.4,3,3v11c0,1.6-1.3,3-3,3h-32.6c-1.6,0-3-1.4-3-3V720.5z"/>
	</g>
	<g>
		<path class="st6" d="M234.2,720.5c0-1.6,1.3-3,3-3h32.6c1.6,0,3,1.4,3,3v11c0,1.6-1.4,3-3,3h-32.6c-1.7,0-3-1.4-3-3V720.5z"/>
	</g>
	<g>
		<path class="st6" d="M193,720.5c0-1.6,1.4-3,3-3h32.6c1.7,0,3,1.4,3,3v11c0,1.6-1.3,3-3,3H196c-1.6,0-3-1.4-3-3V720.5z"/>
	</g>
	<g>
		<path class="st6" d="M193,740.2c0-1.7,1-3,2.1-3h23.1c1.2,0,2.1,1.3,2.1,3v11c0,1.7-0.9,3-2.1,3h-23.1c-1.1,0-2.1-1.3-2.1-3V740.2
			z"/>
	</g>
	<g>
		<path class="st6" d="M224.4,740.2c0-1.7,1-3,2.1-3h23.1c1.2,0,2.1,1.3,2.1,3v11c0,1.7-0.9,3-2.1,3h-23.1c-1.1,0-2.1-1.3-2.1-3
			V740.2z"/>
	</g>
	<g>
		<path class="st6" d="M255.5,740.2c0-1.7,1-3,2.1-3h23.1c1.2,0,2.1,1.3,2.1,3v11c0,1.7-0.9,3-2.1,3h-23.1c-1.1,0-2.1-1.3-2.1-3
			V740.2z"/>
	</g>
	<g>
		<path class="st6" d="M286.7,740.2c0-1.7,1-3,2.1-3h23.1c1.2,0,2.1,1.3,2.1,3v11c0,1.7-0.9,3-2.1,3h-23.1c-1.1,0-2.1-1.3-2.1-3
			V740.2z"/>
	</g>
	<g>
		<path class="st6" d="M275.5,661.9c0-1.7,1.4-3,3-3h32.6c1.7,0,3,1.3,3,3v11c0,1.7-1.3,3-3,3h-32.6c-1.6,0-3-1.3-3-3V661.9z"/>
	</g>
	<g>
		<path class="st6" d="M275.5,642.2c0-1.6,1.4-3,3-3h32.6c1.7,0,3,1.4,3,3v11c0,1.6-1.3,3-3,3h-32.6c-1.6,0-3-1.4-3-3V642.2z"/>
	</g>
	<g>
		<path class="st6" d="M234.2,642.2c0-1.6,1.3-3,3-3h32.6c1.6,0,3,1.4,3,3v11c0,1.6-1.4,3-3,3h-32.6c-1.7,0-3-1.4-3-3V642.2z"/>
	</g>
	<g>
		<path class="st6" d="M234.2,661.9c0-1.7,1.3-3,3-3h32.6c1.6,0,3,1.3,3,3v11c0,1.7-1.4,3-3,3h-32.6c-1.7,0-3-1.3-3-3V661.9z"/>
	</g>
	<g>
		<path class="st6" d="M193,642.2c0-1.6,1.4-3,3-3h32.6c1.7,0,3,1.4,3,3v11c0,1.6-1.3,3-3,3H196c-1.6,0-3-1.4-3-3V642.2z"/>
	</g>
	<g>
		<path class="st6" d="M193,661.9c0-1.7,1.4-3,3-3h32.6c1.7,0,3,1.3,3,3v11c0,1.7-1.3,3-3,3H196c-1.6,0-3-1.3-3-3V661.9z"/>
	</g>
	<g>
		<path class="st6" d="M275.5,583.5c0-1.7,1.4-3,3-3h32.6c1.7,0,3,1.3,3,3v11c0,1.7-1.3,3-3,3h-32.6c-1.6,0-3-1.3-3-3V583.5z"/>
	</g>
	<g>
		<path class="st6" d="M275.5,563.8c0-1.6,1.4-3,3-3h32.6c1.7,0,3,1.4,3,3v11c0,1.6-1.3,3-3,3h-32.6c-1.6,0-3-1.4-3-3V563.8z"/>
	</g>
	<g>
		<path class="st6" d="M234.2,563.8c0-1.6,1.3-3,3-3h32.6c1.6,0,3,1.4,3,3v11c0,1.6-1.4,3-3,3h-32.6c-1.7,0-3-1.4-3-3V563.8z"/>
	</g>
	<g>
		<path class="st6" d="M234.2,583.5c0-1.7,1.3-3,3-3h32.6c1.6,0,3,1.3,3,3v11c0,1.7-1.4,3-3,3h-32.6c-1.7,0-3-1.3-3-3V583.5z"/>
	</g>
	<g>
		<path class="st6" d="M193,563.8c0-1.6,1.4-3,3-3h32.6c1.7,0,3,1.4,3,3v11c0,1.6-1.3,3-3,3H196c-1.6,0-3-1.4-3-3V563.8z"/>
	</g>
	<g>
		<path class="st6" d="M193,583.5c0-1.7,1.4-3,3-3h32.6c1.7,0,3,1.3,3,3v11c0,1.7-1.3,3-3,3H196c-1.6,0-3-1.3-3-3V583.5z"/>
	</g>
	<g>
		<path class="st6" d="M275.5,348.3c0-1.7,1.4-3,3-3h32.6c1.7,0,3,1.3,3,3v11c0,1.7-1.3,3-3,3h-32.6c-1.6,0-3-1.3-3-3V348.3z"/>
	</g>
	<g>
		<path class="st6" d="M275.5,328.6c0-1.6,1.4-3,3-3h32.6c1.7,0,3,1.4,3,3v11c0,1.6-1.3,3-3,3h-32.6c-1.6,0-3-1.4-3-3V328.6z"/>
	</g>
	<g>
		<path class="st6" d="M234.2,328.6c0-1.6,1.3-3,3-3h32.6c1.6,0,3,1.4,3,3v11c0,1.6-1.4,3-3,3h-32.6c-1.7,0-3-1.4-3-3V328.6z"/>
	</g>
	<g>
		<path class="st6" d="M234.2,348.3c0-1.7,1.3-3,3-3h32.6c1.6,0,3,1.3,3,3v11c0,1.7-1.4,3-3,3h-32.6c-1.7,0-3-1.3-3-3V348.3z"/>
	</g>
	<g>
		<path class="st6" d="M193,328.6c0-1.6,1.4-3,3-3h32.6c1.7,0,3,1.4,3,3v11c0,1.6-1.3,3-3,3H196c-1.6,0-3-1.4-3-3V328.6z"/>
	</g>
	<g>
		<path class="st6" d="M193,348.3c0-1.7,1.4-3,3-3h32.6c1.7,0,3,1.3,3,3v11c0,1.7-1.3,3-3,3H196c-1.6,0-3-1.3-3-3V348.3z"/>
	</g>
	<g>
		<path class="st6" d="M275.4,505.1c0-1.7,1.4-3,3-3H311c1.7,0,3,1.3,3,3v11c0,1.7-1.3,3-3,3h-32.6c-1.6,0-3-1.3-3-3V505.1z"/>
	</g>
	<g>
		<path class="st6" d="M275.4,485.4c0-1.6,1.4-3,3-3H311c1.7,0,3,1.4,3,3v11c0,1.6-1.3,3-3,3h-32.6c-1.6,0-3-1.4-3-3V485.4z"/>
	</g>
	<g>
		<path class="st6" d="M234.1,485.4c0-1.6,1.3-3,3-3h32.6c1.6,0,3,1.4,3,3v11c0,1.6-1.4,3-3,3h-32.6c-1.7,0-3-1.4-3-3V485.4z"/>
	</g>
	<g>
		<path class="st6" d="M234.1,505.1c0-1.7,1.3-3,3-3h32.6c1.6,0,3,1.3,3,3v11c0,1.7-1.4,3-3,3h-32.6c-1.7,0-3-1.3-3-3V505.1z"/>
	</g>
	<g>
		<path class="st6" d="M192.9,485.4c0-1.6,1.4-3,3-3h32.6c1.7,0,3,1.4,3,3v11c0,1.6-1.3,3-3,3h-32.6c-1.6,0-3-1.4-3-3V485.4z"/>
	</g>
	<g>
		<path class="st6" d="M192.9,505.1c0-1.7,1.4-3,3-3h32.6c1.7,0,3,1.3,3,3v11c0,1.7-1.3,3-3,3h-32.6c-1.6,0-3-1.3-3-3V505.1z"/>
	</g>
	<g>
		<path class="st6" d="M275.4,426.7c0-1.7,1.4-3,3-3H311c1.7,0,3,1.3,3,3v11c0,1.7-1.3,3-3,3h-32.6c-1.6,0-3-1.3-3-3V426.7z"/>
	</g>
	<g>
		<path class="st6" d="M275.4,407c0-1.6,1.4-3,3-3H311c1.7,0,3,1.4,3,3v11c0,1.6-1.3,3-3,3h-32.6c-1.6,0-3-1.4-3-3V407z"/>
	</g>
	<g>
		<path class="st6" d="M234.1,407c0-1.6,1.3-3,3-3h32.6c1.6,0,3,1.4,3,3v11c0,1.6-1.4,3-3,3h-32.6c-1.7,0-3-1.4-3-3V407z"/>
	</g>
	<g>
		<path class="st6" d="M234.1,426.7c0-1.7,1.3-3,3-3h32.6c1.6,0,3,1.3,3,3v11c0,1.7-1.4,3-3,3h-32.6c-1.7,0-3-1.3-3-3V426.7z"/>
	</g>
	<g>
		<path class="st6" d="M192.9,407c0-1.6,1.4-3,3-3h32.6c1.7,0,3,1.4,3,3v11c0,1.6-1.3,3-3,3h-32.6c-1.6,0-3-1.4-3-3V407z"/>
	</g>
	<g>
		<path class="st6" d="M192.9,426.7c0-1.7,1.4-3,3-3h32.6c1.7,0,3,1.3,3,3v11c0,1.7-1.3,3-3,3h-32.6c-1.6,0-3-1.3-3-3V426.7z"/>
	</g>
	<g>
		<path class="st6" d="M565.5,716.7c1.7,0,3,1.4,3,3v32.6c0,1.7-1.3,3-3,3h-11c-1.7,0-3-1.3-3-3v-32.6c0-1.6,1.3-3,3-3H565.5z"/>
	</g>
	<g>
		<path class="st6" d="M585.2,716.7c1.6,0,3,1.4,3,3v32.6c0,1.7-1.4,3-3,3h-11c-1.6,0-3-1.3-3-3v-32.6c0-1.6,1.4-3,3-3H585.2z"/>
	</g>
	<g>
		<path class="st6" d="M585.2,675.4c1.6,0,3,1.3,3,3V711c0,1.6-1.4,3-3,3h-11c-1.6,0-3-1.4-3-3v-32.6c0-1.7,1.4-3,3-3H585.2z"/>
	</g>
	<g>
		<path class="st6" d="M565.5,675.4c1.7,0,3,1.3,3,3V711c0,1.6-1.3,3-3,3h-11c-1.7,0-3-1.4-3-3v-32.6c0-1.7,1.3-3,3-3H565.5z"/>
	</g>
	<g>
		<path class="st6" d="M585.2,634.2c1.6,0,3,1.4,3,3v32.6c0,1.7-1.4,3-3,3h-11c-1.6,0-3-1.3-3-3v-32.6c0-1.6,1.4-3,3-3H585.2z"/>
	</g>
	<g>
		<path class="st6" d="M508.6,716.6c1.6,0,3,1.4,3,3v32.6c0,1.7-1.4,3-3,3h-11c-1.6,0-3-1.3-3-3v-32.6c0-1.6,1.4-3,3-3H508.6z"/>
	</g>
	<g>
		<path class="st6" d="M508.6,675.3c1.6,0,3,1.3,3,3v32.6c0,1.6-1.4,3-3,3h-11c-1.6,0-3-1.4-3-3v-32.6c0-1.7,1.4-3,3-3H508.6z"/>
	</g>
	<g>
		<path class="st6" d="M508.6,634.1c1.6,0,3,1.4,3,3v32.6c0,1.7-1.4,3-3,3h-11c-1.6,0-3-1.3-3-3v-32.6c0-1.6,1.4-3,3-3H508.6z"/>
	</g>
	<g>
		<path class="st6" d="M565.5,634.2c1.7,0,3,1.4,3,3v32.6c0,1.7-1.3,3-3,3h-11c-1.7,0-3-1.3-3-3v-32.6c0-1.6,1.3-3,3-3H565.5z"/>
	</g>
	<g>
		<path class="st6" d="M649.3,672.7c-1.7,0-3-1.4-3-3v-32.6c0-1.7,1.3-3,3-3h11c1.7,0,3,1.3,3,3v32.6c0,1.6-1.3,3-3,3H649.3z"/>
	</g>
	<g>
		<path class="st6" d="M629.6,672.7c-1.6,0-3-1.4-3-3v-32.6c0-1.7,1.4-3,3-3h11c1.6,0,3,1.3,3,3v32.6c0,1.6-1.4,3-3,3H629.6z"/>
	</g>
	<g>
		<path class="st6" d="M629.6,714c-1.6,0-3-1.3-3-3v-32.6c0-1.6,1.4-3,3-3h11c1.6,0,3,1.4,3,3V711c0,1.7-1.4,3-3,3H629.6z"/>
	</g>
	<g>
		<path class="st6" d="M649.3,714c-1.7,0-3-1.3-3-3v-32.6c0-1.6,1.3-3,3-3h11c1.7,0,3,1.4,3,3V711c0,1.7-1.3,3-3,3H649.3z"/>
	</g>
	<g>
		<path class="st6" d="M629.6,755.2c-1.6,0-3-1.4-3-3v-32.6c0-1.7,1.4-3,3-3h11c1.6,0,3,1.3,3,3v32.6c0,1.6-1.4,3-3,3H629.6z"/>
	</g>
	<g>
		<path class="st6" d="M706.2,672.7c-1.6,0-3-1.4-3-3v-32.6c0-1.7,1.4-3,3-3h11c1.6,0,3,1.3,3,3v32.6c0,1.6-1.4,3-3,3H706.2z"/>
	</g>
	<g>
		<path class="st6" d="M706.2,714c-1.6,0-3-1.3-3-3v-32.6c0-1.6,1.4-3,3-3h11c1.6,0,3,1.4,3,3V711c0,1.7-1.4,3-3,3H706.2z"/>
	</g>
	<g>
		<path class="st6" d="M706.2,755.2c-1.6,0-3-1.4-3-3v-32.6c0-1.7,1.4-3,3-3h11c1.6,0,3,1.3,3,3v32.6c0,1.6-1.4,3-3,3H706.2z"/>
	</g>
	<g>
		<path class="st6" d="M649.3,755.2c-1.7,0-3-1.4-3-3v-32.6c0-1.7,1.3-3,3-3h11c1.7,0,3,1.3,3,3v32.6c0,1.6-1.3,3-3,3H649.3z"/>
	</g>
	<g>
		<path class="st6" d="M367.2,257.7c-0.2-1.6-1.7-2.8-3.4-2.6l-15.5,2c-1.6,0.2-4.3,0.5-6,0.8l-10.9,1.4c-1.6,0.2-2.8,1.7-2.6,3.4
			l1.4,10.9c0.2,1.6,0.5,4.3,0.8,6l2,15.5c0.2,1.6,1.7,2.8,3.4,2.6l10.9-1.4c1.6-0.2,2.8-1.7,2.6-3.4l-2-15.5
			c-0.2-1.6,1-3.1,2.6-3.4l15.5-2c1.6-0.2,2.8-1.7,2.6-3.4L367.2,257.7z"/>
	</g>
	<g>
		<path class="st6" d="M411,288.1c1.6-0.2,2.8-1.7,2.6-3.4l-2-15.5c-0.2-1.6-0.5-4.3-0.8-6l-1.4-10.9c-0.2-1.6-1.7-2.8-3.4-2.6
			l-10.9,1.4c-1.6,0.2-4.3,0.5-6,0.8l-15.5,2c-1.6,0.2-2.8,1.7-2.6,3.4l1.4,10.9c0.2,1.6,1.7,2.8,3.4,2.6l15.5-2
			c1.6-0.2,3.1,1,3.4,2.6l2,15.5c0.2,1.6,1.7,2.8,3.4,2.6L411,288.1z"/>
	</g>
	<g>
		<path class="st6" d="M466.8,245c-0.2-1.6-1.7-2.8-3.4-2.6l-15.5,2c-1.6,0.2-4.3,0.5-6,0.8l-10.9,1.4c-1.6,0.2-2.8,1.7-2.6,3.4
			l1.4,10.9c0.2,1.6,0.5,4.3,0.8,6l2,15.5c0.2,1.6,1.7,2.8,3.4,2.6l10.9-1.4c1.6-0.2,2.8-1.7,2.6-3.4l-2-15.5
			c-0.2-1.6,1-3.1,2.6-3.4l15.5-2c1.6-0.2,2.8-1.7,2.6-3.4L466.8,245z"/>
	</g>
	<g>
		<path class="st6" d="M510.6,275.4c1.6-0.2,2.8-1.7,2.6-3.4l-2-15.5c-0.2-1.6-0.5-4.3-0.8-6l-1.4-10.9c-0.2-1.6-1.7-2.8-3.4-2.6
			l-10.9,1.4c-1.6,0.2-4.3,0.5-6,0.8l-15.5,2c-1.6,0.2-2.8,1.7-2.6,3.4l1.4,10.9c0.2,1.6,1.7,2.8,3.4,2.6l15.5-2
			c1.6-0.2,3.1,1,3.4,2.6l2,15.5c0.2,1.6,1.7,2.8,3.4,2.6L510.6,275.4z"/>
	</g>
	<g>
		<path class="st6" d="M565.2,231.9c-0.2-1.6-1.7-2.8-3.4-2.6l-15.5,2c-1.6,0.2-4.3,0.5-6,0.8l-10.9,1.4c-1.6,0.2-2.8,1.7-2.6,3.4
			l1.4,10.9c0.2,1.6,0.5,4.3,0.8,6l2,15.5c0.2,1.6,1.7,2.8,3.4,2.6l10.9-1.4c1.6-0.2,2.8-1.7,2.6-3.4l-2-15.5
			c-0.2-1.6,1-3.1,2.6-3.4l15.5-2c1.6-0.2,2.8-1.7,2.6-3.4L565.2,231.9z"/>
	</g>
	<g>
		<path class="st6" d="M609,262.3c1.6-0.2,2.8-1.7,2.6-3.4l-2-15.5c-0.2-1.6-0.5-4.3-0.8-6l-1.4-10.9c-0.2-1.6-1.7-2.8-3.4-2.6
			l-10.9,1.4c-1.6,0.2-4.3,0.5-6,0.8l-15.5,2c-1.6,0.2-2.8,1.7-2.6,3.4l1.4,10.9c0.2,1.6,1.7,2.8,3.4,2.6l15.5-2
			c1.6-0.2,3.1,1,3.4,2.6l2,15.5c0.2,1.6,1.7,2.8,3.4,2.6L609,262.3z"/>
	</g>
</g>
<g id="elevatpr">
	<g>
		<g>
			<g>
				<path class="st7" d="M642.6,504.9c-1,0-1.7,0.8-1.7,1.7s0.8,1.7,1.7,1.7s1.7-0.8,1.7-1.7S643.6,504.9,642.6,504.9z"/>
				<path class="st7" d="M642.6,498c-1,0-1.7,0.8-1.7,1.7s0.8,1.7,1.7,1.7s1.7-0.8,1.7-1.7S643.6,498,642.6,498z"/>
				<path class="st7" d="M644.3,475.5h-31.1c-2.9,0-5.2,2.3-5.2,5.2v31.1c0,2.9,2.3,5.2,5.2,5.2h3.5h10.4h10.4h6.9
					c2.9,0,5.2-2.3,5.2-5.2v-31.1C649.5,477.8,647.2,475.5,644.3,475.5z M625.3,513.5h-6.9v-24.2h6.9V513.5L625.3,513.5z
					 M628.8,513.5v-24.2h6.9v24.2H628.8L628.8,513.5z M646.1,511.8c0,1-0.8,1.7-1.7,1.7h-5.2v-24.2c0-1.9-1.5-3.5-3.5-3.5h-8.6h-8.6
					c-1.9,0-3.5,1.5-3.5,3.5v24.2h-1.7c-1,0-1.7-0.8-1.7-1.7v-31.1c0-1,0.8-1.7,1.7-1.7h31.1c1,0,1.7,0.8,1.7,1.7V511.8z"/>
				<path class="st7" d="M632.2,480.7h-10.4c-1,0-1.7,0.8-1.7,1.7s0.8,1.7,1.7,1.7h10.4c1,0,1.7-0.8,1.7-1.7
					S633.2,480.7,632.2,480.7z"/>
			</g>
		</g>
	</g>
	<g>
		<g>
			<g>
				<path class="st7" d="M690.1,504.9c-1,0-1.7,0.8-1.7,1.7s0.8,1.7,1.7,1.7s1.7-0.8,1.7-1.7S691.1,504.9,690.1,504.9z"/>
				<path class="st7" d="M690.1,498c-1,0-1.7,0.8-1.7,1.7s0.8,1.7,1.7,1.7s1.7-0.8,1.7-1.7S691.1,498,690.1,498z"/>
				<path class="st7" d="M691.8,475.5h-31.1c-2.9,0-5.2,2.3-5.2,5.2v31.1c0,2.9,2.3,5.2,5.2,5.2h3.5h10.4H685h6.9
					c2.9,0,5.2-2.3,5.2-5.2v-31.1C697,477.8,694.7,475.5,691.8,475.5z M672.8,513.5h-6.9v-24.2h6.9V513.5L672.8,513.5z M676.3,513.5
					v-24.2h6.9v24.2H676.3L676.3,513.5z M693.6,511.8c0,1-0.8,1.7-1.7,1.7h-5.2v-24.2c0-1.9-1.5-3.5-3.5-3.5h-8.6H666
					c-1.9,0-3.5,1.5-3.5,3.5v24.2h-1.7c-1,0-1.7-0.8-1.7-1.7v-31.1c0-1,0.8-1.7,1.7-1.7h31.1c1,0,1.7,0.8,1.7,1.7V511.8z"/>
				<path class="st7" d="M679.7,480.7h-10.4c-1,0-1.7,0.8-1.7,1.7s0.8,1.7,1.7,1.7h10.4c1,0,1.7-0.8,1.7-1.7
					S680.7,480.7,679.7,480.7z"/>
			</g>
		</g>
	</g>
</g>
<g id="Layer_7" class="st8">

		<image style="display:inline;overflow:visible;opacity:0.37;" width="3509" height="4964" xlink:href="209F4582508DCEF6.jpg"  transform="matrix(0 -0.2692 0.2692 0 -138.5205 974.6407)">
	</image>
</g>
<g id="_x34_" class="st8">

		<image style="display:inline;overflow:visible;opacity:0.23;" width="3509" height="4964" xlink:href="209F4582508DCEF1.jpg"  transform="matrix(1.720313e-17 -0.2809 0.2809 1.720313e-17 -197.9531 1018.6021)">
	</image>
</g>
<g id="Layer_10" class="st8">

		<image style="display:inline;overflow:visible;opacity:0.26;" width="3510" height="4963" xlink:href="209F4582508DCEF3.jpg"  transform="matrix(1.713546e-17 -0.2798 0.2798 1.713546e-17 -194.4312 1017.1641)">
	</image>
</g>
<g id="Layer_2" class="st8">

		<image style="display:inline;overflow:visible;opacity:0.38;" width="4963" height="3509" xlink:href="209F4582508DCEF2.png"  transform="matrix(0.2784 0 0 0.2784 -218.4217 45.8188)">
	</image>
</g>
<g id="Layer_4" class="st8">

		<image style="display:inline;overflow:visible;opacity:0.55;" width="3510" height="4963" xlink:href="209F4582508DCEFE.png"  transform="matrix(0 -0.2786 0.2786 0 -213.3104 1017.1368)">
	</image>
</g>
</svg>
