<?xml version="1.0" encoding="utf-8"?>
<!-- Generator: Adobe Illustrator 26.0.3, SVG Export Plug-In . SVG Version: 6.00 Build 0)  -->
<svg version="1.1" xmlns="http://www.w3.org/2000/svg" xmlns:xlink="http://www.w3.org/1999/xlink" x="0px" y="0px"
	 viewBox="0 0 1000 1000" style="enable-background:new 0 0 1000 1000;" xml:space="preserve">
<style type="text/css">
	.st0{fill:#E4EAF1;stroke:#D7E0EA;stroke-width:7;}
	.st1{fill:#D7DFEA;stroke:#CAD4E3;stroke-width:5;}
	.st2{fill:#CAD4E3;}
	.st3{fill:#94A7C7;}
	.st4{font-family:'GranthaSangamMN-Bold';}
	.st5{font-size:22px;}
	.st6{fill:#D7DFEA;}
	.st7{fill:#AFBDD5;}
	.st8{display:none;}
</style>
<g id="floor">
	<path class="st0" d="M624.4,211.9c4.5-0.6,7.8-4.4,7.8-8.9v-25.4c0-4.9,4-8.9,8.9-8.9h113.2c4.9,0,8.9,4,8.9,8.9v110
		c0,4.9,4,8.9,8.9,8.9l200.2,0.3c4.9,0,8.9,4,8.9,8.9v216.4c0,4.9-4,8.9-8.9,8.9l-112.2,0c-4.9,0-8.9,4-8.9,9l0.4,247
		c0,4.9-4,9-8.9,9h-782c-4.9,0-8.9-4-8.9-8.9V665.8c0-4.9-4-8.9-8.9-8.9h-9.1c-4.9,0-8.9-4-8.9-8.9v-38c0-4.9,4-8.9,8.9-8.9h9.1
		c4.9,0,8.9-4,8.9-8.9l0-301.3c0-4.1,3.1-7.6,7.2-8.1L624.4,211.9z"/>
</g>
<g id="rooms">
	<path class="st1" d="M370.5,596.8H191.3c-4.5,0-8.1-3.6-8.1-8.1V457.4c0-4.5,3.6-8.1,8.1-8.1h179.3c4.5,0,8.1,3.6,8.1,8.1v131.3
		C378.6,593.2,375,596.8,370.5,596.8z"/>
	<path class="st1" d="M503.8,662.7h209.5c4.5,0,8.1-3.6,8.1-8.1V473c0-4.5-3.6-8.1-8.1-8.1H503.8c-4.5,0-8.1,3.6-8.1,8.1v181.6
		C495.7,659.1,499.3,662.7,503.8,662.7z"/>
	<path class="st1" d="M968.8,447.7v63.1c0,4.5-3.6,8.1-8.1,8.1H847.4c-4.5,0-8.1,3.6-8.1,8.1v0.5c0,4.5-3.6,8.1-8.1,8.1h-64.7
		c-4.5,0-8.1-3.6-8.1-8.1v-79.7c0-4.5,3.6-8.1,8.1-8.1h194.2C965.2,439.6,968.8,443.2,968.8,447.7z"/>
	<path class="st1" d="M968.5,388.8l0.3-71.7c0-4.5-3.6-8.1-8.1-8.1l-201.3,0.3c-4.5,0-8.1-3.6-8.1-8.1l-0.3-112
		c0-4.5-3.7-8.1-8.1-8.1l-58.5,0.3c-4.5,0-8.1,3.6-8.1,8.1v199.9c0,4.5,3.6,8.1,8.1,8.1l276-0.6
		C964.9,396.9,968.5,393.3,968.5,388.8z"/>
	<path class="st1" d="M71.9,291.3l63.3-8.1c4.5,0,8.1,3.6,8.1,8.1v297.8c0,4.5-3.6,8.1-8.1,8.1H71.9c-4.5,0-8.1-3.6-8.1-8.1V299.4
		C63.8,294.9,67.5,291.3,71.9,291.3z"/>
	<path class="st1" d="M71.9,662.7h63.3c4.5,0,8.1,3,8.1,6.6v108.2c0,3.7-3.6,6.6-8.1,6.6H71.9c-4.5,0-8.1-3-8.1-6.6V669.4
		C63.8,665.7,67.5,662.7,71.9,662.7z"/>
	<path class="st1" d="M489.3,302.3l19.5,84.7c0.5,4.3,4.3,7.4,8.6,7.1l111.1-15.7c4.2-0.3,7.5-3.8,7.5-8.1l-3.7-89.2
		c0-4.9-4.2-8.6-9.1-8l-127.4,15.4c-4.4,0.5-8.4-2.6-9-6.9l-4.3-31.4c-0.6-4.4-4.6-7.4-8.9-6.9l-39.6,4.5c-5,0.6-8.2,5.5-6.9,10.3
		l13.7,31.4c1,3.5,4.2,5.9,7.8,5.9l32.6,0C485.3,295.2,488.8,298.2,489.3,302.3z"/>
	<g>
		<path class="st2" d="M42,647.7h-0.9c-1.1,0-2.1-0.9-2.1-2.1v-33.2c0-1.1,0.9-2.1,2.1-2.1H42c1.1,0,2.1,0.9,2.1,2.1v33.2
			C44.1,646.7,43.1,647.7,42,647.7z"/>
	</g>
	<g>
		<path class="st2" d="M62.2,647.7h-0.9c-1.1,0-2.1-0.9-2.1-2.1v-33.2c0-1.1,0.9-2.1,2.1-2.1h0.9c1.1,0,2.1,0.9,2.1,2.1v33.2
			C64.3,646.7,63.3,647.7,62.2,647.7z"/>
	</g>
	<g>
		<path class="st2" d="M82.4,647.7h-0.9c-1.1,0-2.1-0.9-2.1-2.1v-33.2c0-1.1,0.9-2.1,2.1-2.1h0.9c1.1,0,2.1,0.9,2.1,2.1v33.2
			C84.5,646.7,83.6,647.7,82.4,647.7z"/>
	</g>
	<g>
		<path class="st2" d="M104,647.7h-0.9c-1.1,0-2.1-0.9-2.1-2.1v-33.2c0-1.1,0.9-2.1,2.1-2.1h0.9c1.1,0,2.1,0.9,2.1,2.1v33.2
			C106.1,646.7,105.2,647.7,104,647.7z"/>
	</g>
	<g>
		<path class="st2" d="M506.9,277.3l-0.9,0.1c-1.1,0.1-2.1-0.7-2.3-1.8l-3.9-33c-0.1-1.1,0.7-2.1,1.8-2.3l0.9-0.1
			c1.1-0.1,2.1,0.7,2.3,1.8l3.9,33C508.9,276.2,508.1,277.2,506.9,277.3z"/>
	</g>
	<g>
		<path class="st2" d="M528.9,275l-0.9,0.1c-1.1,0.1-2.1-0.7-2.3-1.8l-3.9-33c-0.1-1.1,0.7-2.1,1.8-2.3l0.9-0.1
			c1.1-0.1,2.1,0.7,2.3,1.8l3.9,33C530.8,273.8,530,274.8,528.9,275z"/>
	</g>
	<g>
		<path class="st2" d="M548.7,272.6l-0.9,0.1c-1.1,0.1-2.1-0.7-2.3-1.8l-3.9-33c-0.1-1.1,0.7-2.1,1.8-2.3l0.9-0.1
			c1.1-0.1,2.1,0.7,2.3,1.8l3.9,33C550.7,271.5,549.9,272.5,548.7,272.6z"/>
	</g>
	<g>
		<path class="st2" d="M567.9,270.1l-0.9,0.1c-1.1,0.1-2.1-0.7-2.3-1.8l-3.9-33c-0.1-1.1,0.7-2.1,1.8-2.3l0.9-0.1
			c1.1-0.1,2.1,0.7,2.3,1.8l3.9,33C569.8,268.9,569,270,567.9,270.1z"/>
	</g>
	<g>
		<path class="st2" d="M587,267.9l-0.9,0.1c-1.1,0.1-2.1-0.7-2.3-1.8l-3.9-33c-0.1-1.1,0.7-2.1,1.8-2.3l0.9-0.1
			c1.1-0.1,2.1,0.7,2.3,1.8l3.9,33C588.9,266.8,588.1,267.8,587,267.9z"/>
	</g>
	<g>
		<path class="st2" d="M606.2,265.7l-0.9,0.1c-1.1,0.1-2.1-0.7-2.3-1.8l-3.9-33c-0.1-1.1,0.7-2.1,1.8-2.3l0.9-0.1
			c1.1-0.1,2.1,0.7,2.3,1.8l3.9,33C608.1,264.5,607.3,265.6,606.2,265.7z"/>
	</g>
	<g>
		<g>
			<g>
				<path class="st2" d="M461.5,401.4c0,1.4-1.1,2.5-2.5,2.5l0,0c-1.4,0-2.5-1.1-2.5-2.5V299.2c0-1.4,1.1-2.5,2.5-2.5l0,0
					c1.4,0,2.5,1.1,2.5,2.5V401.4z"/>
			</g>
		</g>
	</g>
	<g>
		<g>
			<g>
				<path class="st2" d="M461.5,590.3c0,1.4-1.1,2.5-2.5,2.5l0,0c-1.4,0-2.5-1.1-2.5-2.5V451.3c0-1.4,1.1-2.5,2.5-2.5l0,0
					c1.4,0,2.5,1.1,2.5,2.5V590.3z"/>
			</g>
		</g>
	</g>
	<g>
		<g>
			<g>
				<path class="st2" d="M734.3,789.8c0,1.4-1.1,2.5-2.5,2.5l0,0c-1.4,0-2.5-1.1-2.5-2.5V671.2c0-1.4,1.1-2.5,2.5-2.5l0,0
					c1.4,0,2.5,1.1,2.5,2.5V789.8z"/>
			</g>
		</g>
	</g>
</g>
<g id="numbers">
	<text transform="matrix(1 0 0 1 420.3791 662.7266)" class="st3 st4 st5">301K</text>
	<text transform="matrix(1 0 0 1 293.5996 426.1644)" class="st3 st4 st5">301</text>
</g>
<g id="desks">
	<g>
		<path class="st6" d="M232.3,359.9c1.7,0,3,1.4,3,3v32.6c0,1.7-1.3,3-3,3h-11c-1.7,0-3-1.3-3-3v-32.6c0-1.6,1.3-3,3-3H232.3z"/>
	</g>
	<g>
		<path class="st6" d="M252,359.9c1.6,0,3,1.4,3,3v32.6c0,1.7-1.4,3-3,3h-11c-1.6,0-3-1.3-3-3v-32.6c0-1.6,1.4-3,3-3H252z"/>
	</g>
	<g>
		<path class="st6" d="M252,318.6c1.6,0,3,1.3,3,3v32.6c0,1.6-1.4,3-3,3h-11c-1.6,0-3-1.4-3-3v-32.6c0-1.7,1.4-3,3-3H252z"/>
	</g>
	<g>
		<path class="st6" d="M232.3,318.6c1.7,0,3,1.3,3,3v32.6c0,1.6-1.3,3-3,3h-11c-1.7,0-3-1.4-3-3v-32.6c0-1.7,1.3-3,3-3H232.3z"/>
	</g>
	<g>
		<path class="st6" d="M311.9,342.9c1.7,0,3,1.4,3,3v32.6c0,1.7-1.3,3-3,3h-11c-1.7,0-3-1.3-3-3v-32.6c0-1.6,1.3-3,3-3H311.9z"/>
	</g>
	<g>
		<path class="st6" d="M331.6,342.9c1.6,0,3,1.4,3,3v32.6c0,1.7-1.4,3-3,3h-11c-1.6,0-3-1.3-3-3v-32.6c0-1.6,1.4-3,3-3H331.6z"/>
	</g>
	<g>
		<path class="st6" d="M331.6,301.6c1.6,0,3,1.3,3,3v32.6c0,1.6-1.4,3-3,3h-11c-1.6,0-3-1.4-3-3v-32.6c0-1.7,1.4-3,3-3H331.6z"/>
	</g>
	<g>
		<path class="st6" d="M311.9,301.6c1.7,0,3,1.3,3,3v32.6c0,1.6-1.3,3-3,3h-11c-1.7,0-3-1.4-3-3v-32.6c0-1.7,1.3-3,3-3H311.9z"/>
	</g>
	<g>
		<path class="st6" d="M594.8,742.2c1.7,0,3,1.4,3,3v32.6c0,1.7-1.3,3-3,3h-11c-1.7,0-3-1.3-3-3v-32.6c0-1.6,1.3-3,3-3H594.8z"/>
	</g>
	<g>
		<path class="st6" d="M614.5,742.2c1.6,0,3,1.4,3,3v32.6c0,1.7-1.4,3-3,3h-11c-1.6,0-3-1.3-3-3v-32.6c0-1.6,1.4-3,3-3H614.5z"/>
	</g>
	<g>
		<path class="st6" d="M614.5,700.9c1.6,0,3,1.3,3,3v32.6c0,1.6-1.4,3-3,3h-11c-1.6,0-3-1.4-3-3v-32.6c0-1.7,1.4-3,3-3H614.5z"/>
	</g>
	<g>
		<path class="st6" d="M594.8,700.9c1.7,0,3,1.3,3,3v32.6c0,1.6-1.3,3-3,3h-11c-1.7,0-3-1.4-3-3v-32.6c0-1.7,1.3-3,3-3H594.8z"/>
	</g>
	<g>
		<path class="st6" d="M517.5,742.2c1.7,0,3,1.4,3,3v32.6c0,1.7-1.3,3-3,3h-11c-1.7,0-3-1.3-3-3v-32.6c0-1.6,1.3-3,3-3H517.5z"/>
	</g>
	<g>
		<path class="st6" d="M537.2,742.2c1.6,0,3,1.4,3,3v32.6c0,1.7-1.4,3-3,3h-11c-1.6,0-3-1.3-3-3v-32.6c0-1.6,1.4-3,3-3H537.2z"/>
	</g>
	<g>
		<path class="st6" d="M537.2,700.9c1.6,0,3,1.3,3,3v32.6c0,1.6-1.4,3-3,3h-11c-1.6,0-3-1.4-3-3v-32.6c0-1.7,1.4-3,3-3H537.2z"/>
	</g>
	<g>
		<path class="st6" d="M517.5,700.9c1.7,0,3,1.3,3,3v32.6c0,1.6-1.3,3-3,3h-11c-1.7,0-3-1.4-3-3v-32.6c0-1.7,1.3-3,3-3H517.5z"/>
	</g>
	<g>
		<path class="st6" d="M440.9,742.2c1.7,0,3,1.4,3,3v32.6c0,1.7-1.3,3-3,3h-11c-1.7,0-3-1.3-3-3v-32.6c0-1.6,1.3-3,3-3H440.9z"/>
	</g>
	<g>
		<path class="st6" d="M460.6,742.2c1.6,0,3,1.4,3,3v32.6c0,1.7-1.4,3-3,3h-11c-1.6,0-3-1.3-3-3v-32.6c0-1.6,1.4-3,3-3H460.6z"/>
	</g>
	<g>
		<path class="st6" d="M460.6,700.9c1.6,0,3,1.3,3,3v32.6c0,1.6-1.4,3-3,3h-11c-1.6,0-3-1.4-3-3v-32.6c0-1.7,1.4-3,3-3H460.6z"/>
	</g>
	<g>
		<path class="st6" d="M440.9,700.9c1.7,0,3,1.3,3,3v32.6c0,1.6-1.3,3-3,3h-11c-1.7,0-3-1.4-3-3v-32.6c0-1.7,1.3-3,3-3H440.9z"/>
	</g>
	<g>
		<path class="st6" d="M670.1,742.2c1.7,0,3,1.4,3,3v32.6c0,1.7-1.3,3-3,3h-11c-1.7,0-3-1.3-3-3v-32.6c0-1.6,1.3-3,3-3H670.1z"/>
	</g>
	<g>
		<path class="st6" d="M689.8,742.2c1.6,0,3,1.4,3,3v32.6c0,1.7-1.4,3-3,3h-11c-1.6,0-3-1.3-3-3v-32.6c0-1.6,1.4-3,3-3H689.8z"/>
	</g>
	<g>
		<path class="st6" d="M689.8,700.9c1.6,0,3,1.3,3,3v32.6c0,1.6-1.4,3-3,3h-11c-1.6,0-3-1.4-3-3v-32.6c0-1.7,1.4-3,3-3H689.8z"/>
	</g>
	<g>
		<path class="st6" d="M670.1,700.9c1.7,0,3,1.3,3,3v32.6c0,1.6-1.3,3-3,3h-11c-1.7,0-3-1.4-3-3v-32.6c0-1.7,1.3-3,3-3H670.1z"/>
	</g>
	<g>
		<path class="st6" d="M252,277.4c1.6,0,3,1.4,3,3V313c0,1.7-1.4,3-3,3h-11c-1.6,0-3-1.3-3-3v-32.6c0-1.6,1.4-3,3-3H252z"/>
	</g>
	<g>
		<path class="st6" d="M232.3,277.4c1.7,0,3,1.4,3,3V313c0,1.7-1.3,3-3,3h-11c-1.7,0-3-1.3-3-3v-32.6c0-1.6,1.3-3,3-3H232.3z"/>
	</g>
	<g>
		<path class="st6" d="M363.3,722.9c1.7,0,3,1.4,3,3v32.6c0,1.7-1.3,3-3,3h-11c-1.7,0-3-1.3-3-3v-32.6c0-1.6,1.3-3,3-3H363.3z"/>
	</g>
	<g>
		<path class="st6" d="M383,722.9c1.6,0,3,1.4,3,3v32.6c0,1.7-1.4,3-3,3h-11c-1.6,0-3-1.3-3-3v-32.6c0-1.6,1.4-3,3-3H383z"/>
	</g>
	<g>
		<path class="st6" d="M383,681.6c1.6,0,3,1.3,3,3v32.6c0,1.6-1.4,3-3,3h-11c-1.6,0-3-1.4-3-3v-32.6c0-1.7,1.4-3,3-3H383z"/>
	</g>
	<g>
		<path class="st6" d="M363.3,681.6c1.7,0,3,1.3,3,3v32.6c0,1.6-1.3,3-3,3h-11c-1.7,0-3-1.4-3-3v-32.6c0-1.7,1.3-3,3-3H363.3z"/>
	</g>
	<g>
		<path class="st6" d="M383,640.4c1.6,0,3,1.4,3,3V676c0,1.7-1.4,3-3,3h-11c-1.6,0-3-1.3-3-3v-32.6c0-1.6,1.4-3,3-3H383z"/>
	</g>
	<g>
		<path class="st6" d="M363.3,640.4c1.7,0,3,1.4,3,3V676c0,1.7-1.3,3-3,3h-11c-1.7,0-3-1.3-3-3v-32.6c0-1.6,1.3-3,3-3H363.3z"/>
	</g>
	<g>
		<path class="st6" d="M290.6,722.9c1.7,0,3,1.4,3,3v32.6c0,1.7-1.3,3-3,3h-11c-1.7,0-3-1.3-3-3v-32.6c0-1.6,1.3-3,3-3H290.6z"/>
	</g>
	<g>
		<path class="st6" d="M310.3,722.9c1.6,0,3,1.4,3,3v32.6c0,1.7-1.4,3-3,3h-11c-1.6,0-3-1.3-3-3v-32.6c0-1.6,1.4-3,3-3H310.3z"/>
	</g>
	<g>
		<path class="st6" d="M310.3,681.6c1.6,0,3,1.3,3,3v32.6c0,1.6-1.4,3-3,3h-11c-1.6,0-3-1.4-3-3v-32.6c0-1.7,1.4-3,3-3H310.3z"/>
	</g>
	<g>
		<path class="st6" d="M290.6,681.6c1.7,0,3,1.3,3,3v32.6c0,1.6-1.3,3-3,3h-11c-1.7,0-3-1.4-3-3v-32.6c0-1.7,1.3-3,3-3H290.6z"/>
	</g>
	<g>
		<path class="st6" d="M310.3,640.4c1.6,0,3,1.4,3,3V676c0,1.7-1.4,3-3,3h-11c-1.6,0-3-1.3-3-3v-32.6c0-1.6,1.4-3,3-3H310.3z"/>
	</g>
	<g>
		<path class="st6" d="M290.6,640.4c1.7,0,3,1.4,3,3V676c0,1.7-1.3,3-3,3h-11c-1.7,0-3-1.3-3-3v-32.6c0-1.6,1.3-3,3-3H290.6z"/>
	</g>
	<g>
		<path class="st6" d="M212.6,722.8c1.7,0,3,1.4,3,3v32.6c0,1.7-1.3,3-3,3h-11c-1.7,0-3-1.3-3-3v-32.6c0-1.6,1.3-3,3-3H212.6z"/>
	</g>
	<g>
		<path class="st6" d="M232.3,722.8c1.6,0,3,1.4,3,3v32.6c0,1.7-1.4,3-3,3h-11c-1.6,0-3-1.3-3-3v-32.6c0-1.6,1.4-3,3-3H232.3z"/>
	</g>
	<g>
		<path class="st6" d="M232.3,681.5c1.6,0,3,1.3,3,3v32.6c0,1.6-1.4,3-3,3h-11c-1.6,0-3-1.4-3-3v-32.6c0-1.7,1.4-3,3-3H232.3z"/>
	</g>
	<g>
		<path class="st6" d="M212.6,681.5c1.7,0,3,1.3,3,3v32.6c0,1.6-1.3,3-3,3h-11c-1.7,0-3-1.4-3-3v-32.6c0-1.7,1.3-3,3-3H212.6z"/>
	</g>
	<g>
		<path class="st6" d="M232.3,640.3c1.6,0,3,1.4,3,3v32.6c0,1.7-1.4,3-3,3h-11c-1.6,0-3-1.3-3-3v-32.6c0-1.6,1.4-3,3-3H232.3z"/>
	</g>
	<g>
		<path class="st6" d="M212.6,640.3c1.7,0,3,1.4,3,3v32.6c0,1.7-1.3,3-3,3h-11c-1.7,0-3-1.3-3-3v-32.6c0-1.6,1.3-3,3-3H212.6z"/>
	</g>
	<g>
		<path class="st6" d="M391.5,359.9c1.7,0,3,1.4,3,3v32.6c0,1.7-1.3,3-3,3h-11c-1.7,0-3-1.3-3-3v-32.6c0-1.6,1.3-3,3-3H391.5z"/>
	</g>
	<g>
		<path class="st6" d="M411.2,359.9c1.6,0,3,1.4,3,3v32.6c0,1.7-1.4,3-3,3h-11c-1.6,0-3-1.3-3-3v-32.6c0-1.6,1.4-3,3-3H411.2z"/>
	</g>
	<g>
		<path class="st6" d="M411.2,318.6c1.6,0,3,1.3,3,3v32.6c0,1.6-1.4,3-3,3h-11c-1.6,0-3-1.4-3-3v-32.6c0-1.7,1.4-3,3-3H411.2z"/>
	</g>
	<g>
		<path class="st6" d="M391.5,318.6c1.7,0,3,1.3,3,3v32.6c0,1.6-1.3,3-3,3h-11c-1.7,0-3-1.4-3-3v-32.6c0-1.7,1.3-3,3-3H391.5z"/>
	</g>
	<g>
		<path class="st6" d="M411.2,277.4c1.6,0,3,1.4,3,3V313c0,1.7-1.4,3-3,3h-11c-1.6,0-3-1.3-3-3v-32.6c0-1.6,1.4-3,3-3H411.2z"/>
	</g>
	<g>
		<path class="st6" d="M391.5,277.4c1.7,0,3,1.4,3,3V313c0,1.7-1.3,3-3,3h-11c-1.7,0-3-1.3-3-3v-32.6c0-1.6,1.3-3,3-3H391.5z"/>
	</g>
</g>
<g id="elevatpr">
	<g>
		<g>
			<g>
				<path class="st7" d="M642.6,504.9c-1,0-1.7,0.8-1.7,1.7s0.8,1.7,1.7,1.7s1.7-0.8,1.7-1.7S643.6,504.9,642.6,504.9z"/>
				<path class="st7" d="M642.6,498c-1,0-1.7,0.8-1.7,1.7s0.8,1.7,1.7,1.7s1.7-0.8,1.7-1.7S643.6,498,642.6,498z"/>
				<path class="st7" d="M644.3,475.5h-31.1c-2.9,0-5.2,2.3-5.2,5.2v31.1c0,2.9,2.3,5.2,5.2,5.2h3.5h10.4h10.4h6.9
					c2.9,0,5.2-2.3,5.2-5.2v-31.1C649.5,477.8,647.2,475.5,644.3,475.5z M625.3,513.5h-6.9v-24.2h6.9V513.5L625.3,513.5z
					 M628.8,513.5v-24.2h6.9v24.2H628.8L628.8,513.5z M646.1,511.8c0,1-0.8,1.7-1.7,1.7h-5.2v-24.2c0-1.9-1.5-3.5-3.5-3.5h-8.6h-8.6
					c-1.9,0-3.5,1.5-3.5,3.5v24.2h-1.7c-1,0-1.7-0.8-1.7-1.7v-31.1c0-1,0.8-1.7,1.7-1.7h31.1c1,0,1.7,0.8,1.7,1.7V511.8z"/>
				<path class="st7" d="M632.2,480.7h-10.4c-1,0-1.7,0.8-1.7,1.7s0.8,1.7,1.7,1.7h10.4c1,0,1.7-0.8,1.7-1.7
					S633.2,480.7,632.2,480.7z"/>
			</g>
		</g>
	</g>
	<g>
		<g>
			<g>
				<path class="st7" d="M690.1,504.9c-1,0-1.7,0.8-1.7,1.7s0.8,1.7,1.7,1.7s1.7-0.8,1.7-1.7S691.1,504.9,690.1,504.9z"/>
				<path class="st7" d="M690.1,498c-1,0-1.7,0.8-1.7,1.7s0.8,1.7,1.7,1.7s1.7-0.8,1.7-1.7S691.1,498,690.1,498z"/>
				<path class="st7" d="M691.8,475.5h-31.1c-2.9,0-5.2,2.3-5.2,5.2v31.1c0,2.9,2.3,5.2,5.2,5.2h3.5h10.4H685h6.9
					c2.9,0,5.2-2.3,5.2-5.2v-31.1C697,477.8,694.7,475.5,691.8,475.5z M672.8,513.5h-6.9v-24.2h6.9V513.5L672.8,513.5z M676.3,513.5
					v-24.2h6.9v24.2H676.3L676.3,513.5z M693.6,511.8c0,1-0.8,1.7-1.7,1.7h-5.2v-24.2c0-1.9-1.5-3.5-3.5-3.5h-8.6H666
					c-1.9,0-3.5,1.5-3.5,3.5v24.2h-1.7c-1,0-1.7-0.8-1.7-1.7v-31.1c0-1,0.8-1.7,1.7-1.7h31.1c1,0,1.7,0.8,1.7,1.7V511.8z"/>
				<path class="st7" d="M679.7,480.7h-10.4c-1,0-1.7,0.8-1.7,1.7s0.8,1.7,1.7,1.7h10.4c1,0,1.7-0.8,1.7-1.7
					S680.7,480.7,679.7,480.7z"/>
			</g>
		</g>
	</g>
</g>
<g id="Layer_7" class="st8">

		<image style="display:inline;overflow:visible;opacity:0.37;" width="3509" height="4964" xlink:href="208E6F68DC712661.jpg"  transform="matrix(0 -0.2692 0.2692 0 -138.5205 974.6407)">
	</image>
</g>
<g id="Layer_2" class="st8">

		<image style="display:inline;overflow:visible;opacity:0.38;" width="4963" height="3509" xlink:href="208E6F68DC712666.png"  transform="matrix(0.2784 0 0 0.2784 -218.4217 45.8188)">
	</image>
</g>
<g id="Layer_4" class="st8">

		<image style="display:inline;overflow:visible;opacity:0.55;" width="3510" height="4963" xlink:href="208E6F68DC712663.png"  transform="matrix(0 -0.2786 0.2786 0 -213.3104 1017.1368)">
	</image>
</g>
</svg>
