<?xml version="1.0" encoding="utf-8"?>
<!-- Generator: Adobe Illustrator 26.0.3, SVG Export Plug-In . SVG Version: 6.00 Build 0)  -->
<svg version="1.1" id="Layer_1" xmlns="http://www.w3.org/2000/svg" xmlns:xlink="http://www.w3.org/1999/xlink" x="0px" y="0px"
	 viewBox="0 0 1080 1080" style="enable-background:new 0 0 1080 1080;" xml:space="preserve">
<style type="text/css">
	.st0{fill:#EBEBEB;}
	.st1{fill:none;stroke:#D2D2D2;stroke-width:5;}
	.st2{fill:#D8D8D8;}
	.st3{fill:none;stroke:#969696;stroke-width:3;}
	.st4{fill:#D6D6D6;}
	.st5{fill:none;stroke:#D2D2D2;stroke-width:5;stroke-linecap:round;}
</style>
<g>
	<path class="st0" d="M101.53,294.46c-5.46,0.69-9.22,5.7-8.36,11.13l1.18,7.48c0.86,5.43-1.99,10.68-6.32,11.67
		c-4.34,0.99-7.88,6.29-7.88,11.79V828.2c0,5.5,4.5,10,10,10h786.21c5.5,0,10-4.5,10-10V583.05c0-5.5,4.5-10,10-10h110.43
		c5.5,0,10-4.5,10-10V346.56c0-5.5-4.5-10-10-10H808.92c-5.5,0-13.39-2.96-17.53-6.58L676.02,229.2c-4.14-3.62-12-6.01-17.45-5.32
		L101.53,294.46z"/>
	<path class="st1" d="M101.53,294.46c-5.46,0.69-9.22,5.7-8.36,11.13l1.18,7.48c0.86,5.43-1.99,10.68-6.32,11.67
		c-4.34,0.99-7.88,6.29-7.88,11.79V828.2c0,5.5,4.5,10,10,10h786.21c5.5,0,10-4.5,10-10V583.05c0-5.5,4.5-10,10-10h110.43
		c5.5,0,10-4.5,10-10V346.56c0-5.5-4.5-10-10-10H808.92c-5.5,0-13.39-2.96-17.53-6.58L676.02,229.2c-4.14-3.62-12-6.01-17.45-5.32
		L101.53,294.46z"/>
</g>
<g>
	<path class="st2" d="M190.03,438.52c0,5.5-4.5,10-10,10h-75.22c-5.5,0-10-4.5-10-10v-99.11c0-5.5,4.5-10,10-10h75.22
		c5.5,0,10,4.5,10,10V438.52z"/>
	<path class="st3" d="M190.03,438.52c0,5.5-4.5,10-10,10h-75.22c-5.5,0-10-4.5-10-10v-99.11c0-5.5,4.5-10,10-10h75.22
		c5.5,0,10,4.5,10,10V438.52z"/>
</g>
<g>
	<path class="st2" d="M304.35,551.07c0,5.5-4.5,10-10,10h-75.22c-5.5,0-10-4.5-10-10v-81.21c0-5.5,4.5-10,10-10h75.22
		c5.5,0,10,4.5,10,10V551.07z"/>
	<path class="st3" d="M304.35,551.07c0,5.5-4.5,10-10,10h-75.22c-5.5,0-10-4.5-10-10v-81.21c0-5.5,4.5-10,10-10h75.22
		c5.5,0,10,4.5,10,10V551.07z"/>
</g>
<g>
	<path class="st2" d="M190.03,628.19c0,5.5-4.5,10-10,10h-75.22c-5.5,0-10-4.5-10-10v-56.03c0-5.5,4.5-10,10-10h75.22
		c5.5,0,10,4.5,10,10V628.19z"/>
	<path class="st3" d="M190.03,628.19c0,5.5-4.5,10-10,10h-75.22c-5.5,0-10-4.5-10-10v-56.03c0-5.5,4.5-10,10-10h75.22
		c5.5,0,10,4.5,10,10V628.19z"/>
</g>
<g>
	<path class="st2" d="M190.03,753.27c0,5.5-4.5,10-10,10h-75.22c-5.5,0-10-4.5-10-10v-43.39c0-5.5,4.5-10,10-10h75.22
		c5.5,0,10,4.5,10,10V753.27z"/>
	<path class="st3" d="M190.03,753.27c0,5.5-4.5,10-10,10h-75.22c-5.5,0-10-4.5-10-10v-43.39c0-5.5,4.5-10,10-10h75.22
		c5.5,0,10,4.5,10,10V753.27z"/>
</g>
<g>
	<path class="st2" d="M190.03,820.85c0,5.5-4.5,10-10,10h-75.22c-5.5,0-10-4.5-10-10v-41.28c0-5.5,4.5-10,10-10h75.22
		c5.5,0,10,4.5,10,10V820.85z"/>
	<path class="st3" d="M190.03,820.85c0,5.5-4.5,10-10,10h-75.22c-5.5,0-10-4.5-10-10v-41.28c0-5.5,4.5-10,10-10h75.22
		c5.5,0,10,4.5,10,10V820.85z"/>
</g>
<g>
	<path class="st2" d="M679.22,359.46c0,5.5-4.5,10-10,10H550.65c-5.5,0-10-4.5-10-10v-73.13c0-5.5,4.5-10,10-10h118.57
		c5.5,0,10,4.5,10,10V359.46z"/>
	<path class="st3" d="M679.22,359.46c0,5.5-4.5,10-10,10H550.65c-5.5,0-10-4.5-10-10v-73.13c0-5.5,4.5-10,10-10h118.57
		c5.5,0,10,4.5,10,10V359.46z"/>
</g>
<g>
	<path class="st2" d="M814.48,452.58c0,5.5-4.5,10-10,10h-56.54c-5.5,0-10-4.5-10-10v-73.13c0-5.5,4.5-10,10-10h56.54
		c5.5,0,10,4.5,10,10V452.58z"/>
	<path class="st3" d="M814.48,452.58c0,5.5-4.5,10-10,10h-56.54c-5.5,0-10-4.5-10-10v-73.13c0-5.5,4.5-10,10-10h56.54
		c5.5,0,10,4.5,10,10V452.58z"/>
</g>
<g>
	<path class="st2" d="M1016.77,427.04c0,5.5-4.5,10-10,10h-49.34c-5.5,0-10-4.5-10-10v-73.13c0-5.5,4.5-10,10-10h49.34
		c5.5,0,10,4.5,10,10V427.04z"/>
	<path class="st3" d="M1016.77,427.04c0,5.5-4.5,10-10,10h-49.34c-5.5,0-10-4.5-10-10v-73.13c0-5.5,4.5-10,10-10h49.34
		c5.5,0,10,4.5,10,10V427.04z"/>
</g>
<g>
	<path class="st2" d="M1016.77,556.68c0,5.5-4.5,10-10,10h-51.83c-5.5,0-10-4.5-10-10v-66.04c0-5.5,4.5-10,10-10h51.83
		c5.5,0,10,4.5,10,10V556.68z"/>
	<path class="st3" d="M1016.77,556.68c0,5.5-4.5,10-10,10h-51.83c-5.5,0-10-4.5-10-10v-66.04c0-5.5,4.5-10,10-10h51.83
		c5.5,0,10,4.5,10,10V556.68z"/>
</g>
<g>
	<path class="st2" d="M852.24,556.68c0,5.5-4.5,10-10,10h-30.02c-5.5,0-10-4.5-10-10v-66.04c0-5.5,4.5-10,10-10h30.02
		c5.5,0,10,4.5,10,10V556.68z"/>
	<path class="st3" d="M852.24,556.68c0,5.5-4.5,10-10,10h-30.02c-5.5,0-10-4.5-10-10v-66.04c0-5.5,4.5-10,10-10h30.02
		c5.5,0,10,4.5,10,10V556.68z"/>
</g>
<g>
	<path class="st2" d="M939.47,556.68c0,5.5-4.5,10-10,10h-61.2c-5.5,0-10-4.5-10-10v-66.04c0-5.5,4.5-10,10-10h61.2
		c5.5,0,10,4.5,10,10V556.68z"/>
	<path class="st3" d="M939.47,556.68c0,5.5-4.5,10-10,10h-61.2c-5.5,0-10-4.5-10-10v-66.04c0-5.5,4.5-10,10-10h61.2
		c5.5,0,10,4.5,10,10V556.68z"/>
</g>
<g>
	<path class="st2" d="M685.32,649.34c0,5.5-4.5,10-10,10H466.94c-5.5,0-10-4.5-10-10V462.96c0-5.5,4.5-10,10-10h208.38
		c5.5,0,10,4.5,10,10V649.34z"/>
	<path class="st3" d="M685.32,649.34c0,5.5-4.5,10-10,10H466.94c-5.5,0-10-4.5-10-10V462.96c0-5.5,4.5-10,10-10h208.38
		c5.5,0,10,4.5,10,10V649.34z"/>
</g>
<g>
	<path class="st2" d="M445.35,811.7c0,5.5-4.5,10-10,10H257.44c-5.5,0-10-4.5-10-10V679.04c0-5.5,4.5-10,10-10h177.91
		c5.5,0,10,4.5,10,10V811.7z"/>
	<path class="st3" d="M445.35,811.7c0,5.5-4.5,10-10,10H257.44c-5.5,0-10-4.5-10-10V679.04c0-5.5,4.5-10,10-10h177.91
		c5.5,0,10,4.5,10,10V811.7z"/>
</g>
<g>
	<path class="st4" d="M273.23,348.88c0,1.65-1.35,3-3,3h-10.48c-1.65,0-3-1.35-3-3V309.9c0-1.65,1.35-3,3-3h10.48c1.65,0,3,1.35,3,3
		V348.88z"/>
</g>
<g>
	<path class="st4" d="M291.86,348.9c0,1.65-1.35,3-3,3h-10.48c-1.65,0-3-1.35-3-3v-38.98c0-1.65,1.35-3,3-3h10.48c1.65,0,3,1.35,3,3
		V348.9z"/>
</g>
<g>
	<path class="st4" d="M273.23,396.19c0,1.65-1.35,3-3,3h-10.48c-1.65,0-3-1.35-3-3v-38.98c0-1.65,1.35-3,3-3h10.48
		c1.65,0,3,1.35,3,3V396.19z"/>
</g>
<line class="st4" x1="335.52" y1="429.82" x2="335.85" y2="429.49"/>
<g>
	<path class="st4" d="M291.86,396.19c0,1.65-1.35,3-3,3h-10.48c-1.65,0-3-1.35-3-3v-38.98c0-1.65,1.35-3,3-3h10.48
		c1.65,0,3,1.35,3,3V396.19z"/>
</g>
<g>
	<path class="st4" d="M273.23,443.5c0,1.65-1.35,3-3,3h-10.48c-1.65,0-3-1.35-3-3v-38.98c0-1.65,1.35-3,3-3h10.48c1.65,0,3,1.35,3,3
		V443.5z"/>
</g>
<g>
	<path class="st4" d="M291.86,443.48c0,1.65-1.35,3-3,3h-10.48c-1.65,0-3-1.35-3-3V404.5c0-1.65,1.35-3,3-3h10.48c1.65,0,3,1.35,3,3
		V443.48z"/>
</g>
<g>
	<path class="st4" d="M629.42,781.51c1.65,0,3,1.35,3,3v10.48c0,1.65-1.35,3-3,3h-38.98c-1.65,0-3-1.35-3-3v-10.48
		c0-1.65,1.35-3,3-3H629.42z"/>
</g>
<g>
	<path class="st4" d="M629.44,762.87c1.65,0,3,1.35,3,3v10.48c0,1.65-1.35,3-3,3h-38.98c-1.65,0-3-1.35-3-3v-10.48
		c0-1.65,1.35-3,3-3H629.44z"/>
</g>
<g>
	<path class="st4" d="M676.73,781.51c1.65,0,3,1.35,3,3v10.48c0,1.65-1.35,3-3,3h-38.98c-1.65,0-3-1.35-3-3v-10.48
		c0-1.65,1.35-3,3-3H676.73z"/>
</g>
<g>
	<path class="st4" d="M676.73,762.87c1.65,0,3,1.35,3,3v10.48c0,1.65-1.35,3-3,3h-38.98c-1.65,0-3-1.35-3-3v-10.48
		c0-1.65,1.35-3,3-3H676.73z"/>
</g>
<g>
	<path class="st4" d="M724.04,781.51c1.65,0,3,1.35,3,3v10.48c0,1.65-1.35,3-3,3h-38.98c-1.65,0-3-1.35-3-3v-10.48
		c0-1.65,1.35-3,3-3H724.04z"/>
</g>
<g>
	<path class="st4" d="M724.02,762.87c1.65,0,3,1.35,3,3v10.48c0,1.65-1.35,3-3,3h-38.98c-1.65,0-3-1.35-3-3v-10.48
		c0-1.65,1.35-3,3-3H724.02z"/>
</g>
<g>
	<path class="st4" d="M354.63,376.78c0,1.65-1.35,3-3,3h-10.48c-1.65,0-3-1.35-3-3v-38.98c0-1.65,1.35-3,3-3h10.48
		c1.65,0,3,1.35,3,3V376.78z"/>
</g>
<g>
	<path class="st4" d="M373.27,376.8c0,1.65-1.35,3-3,3h-10.48c-1.65,0-3-1.35-3-3v-38.98c0-1.65,1.35-3,3-3h10.48c1.65,0,3,1.35,3,3
		V376.8z"/>
</g>
<g>
	<path class="st4" d="M354.63,424.09c0,1.65-1.35,3-3,3h-10.48c-1.65,0-3-1.35-3-3v-38.98c0-1.65,1.35-3,3-3h10.48
		c1.65,0,3,1.35,3,3V424.09z"/>
</g>
<g>
	<path class="st4" d="M373.27,424.09c0,1.65-1.35,3-3,3h-10.48c-1.65,0-3-1.35-3-3v-38.98c0-1.65,1.35-3,3-3h10.48
		c1.65,0,3,1.35,3,3V424.09z"/>
</g>
<g>
	<path class="st4" d="M353.56,581.98c0,1.65-1.35,3-3,3h-10.48c-1.65,0-3-1.35-3-3V543c0-1.65,1.35-3,3-3h10.48c1.65,0,3,1.35,3,3
		V581.98z"/>
</g>
<g>
	<path class="st4" d="M372.19,581.99c0,1.65-1.35,3-3,3h-10.48c-1.65,0-3-1.35-3-3v-38.98c0-1.65,1.35-3,3-3h10.48
		c1.65,0,3,1.35,3,3V581.99z"/>
</g>
<g>
	<path class="st4" d="M353.56,629.29c0,1.65-1.35,3-3,3h-10.48c-1.65,0-3-1.35-3-3v-38.98c0-1.65,1.35-3,3-3h10.48
		c1.65,0,3,1.35,3,3V629.29z"/>
</g>
<g>
	<path class="st4" d="M372.19,629.29c0,1.65-1.35,3-3,3h-10.48c-1.65,0-3-1.35-3-3v-38.98c0-1.65,1.35-3,3-3h10.48
		c1.65,0,3,1.35,3,3V629.29z"/>
</g>
<line class="st5" x1="719.99" y1="682.5" x2="865.07" y2="663.18"/>
<line class="st5" x1="712.91" y1="626.79" x2="857.17" y2="608.45"/>
<line class="st5" x1="723.66" y1="625.42" x2="731.05" y2="681.1"/>
<line class="st5" x1="748.09" y1="622.81" x2="755.13" y2="675.82"/>
<line class="st5" x1="772.52" y1="618.94" x2="779.91" y2="674.62"/>
<line class="st5" x1="796.43" y1="616.4" x2="803.53" y2="669.94"/>
<line class="st5" x1="821.11" y1="613.12" x2="828.28" y2="667.11"/>
<line class="st5" x1="845.59" y1="609.87" x2="852.69" y2="663.35"/>
<line class="st5" x1="97.48" y1="645.84" x2="190.03" y2="645.79"/>
<line class="st5" x1="97.51" y1="693.59" x2="190.06" y2="693.54"/>
<line class="st5" x1="104.32" y1="693.59" x2="104.4" y2="645.79"/>
<line class="st5" x1="124.07" y1="692.18" x2="124.07" y2="645.89"/>
<line class="st5" x1="143.4" y1="691.77" x2="143.47" y2="647.73"/>
<line class="st5" x1="164.4" y1="691.81" x2="164.47" y2="647.76"/>
<line class="st5" x1="183.35" y1="691.84" x2="183.42" y2="647.79"/>
</svg>
