<?xml version="1.0" encoding="utf-8"?>
<!-- Generator: Adobe Illustrator 26.0.3, SVG Export Plug-In . SVG Version: 6.00 Build 0)  -->
<svg version="1.1" id="Layer_1" xmlns="http://www.w3.org/2000/svg" xmlns:xlink="http://www.w3.org/1999/xlink" x="0px" y="0px"
	 viewBox="0 0 1080 1080" style="enable-background:new 0 0 1080 1080;" xml:space="preserve">
<style type="text/css">
	.st0{fill:#7EA1FF;}
	.st1{fill:#5BBCFF;}
	.st2{fill:none;stroke:#000000;stroke-miterlimit:10;}
</style>
<g>
	<g>
		<polyline class="st0" points="774.52,820.01 725.27,790.05 725.13,534.82 776.18,525.73 		"/>
		<path class="st1" d="M309.85,511.07c12.1,7.72,40.38,8.77,51.16,15.65v262.66l-54.36,32.38"/>
		<path class="st1" d="M541.48,547.54c91.92,2.15,188.8-53.41,188.39-145.73c0,0,49.59,28.71,96.9,56.02l0.15,332.79l-52.95,29.63
			l1.88-257.5l-33.61,20.55l-150.06,88.43l0.1,254.88l-52.25,29.61l-0.03-2.71l0-328.85c-94.2-54.79-189.48-110.2-284.76-165.61
			c47.47-27.76,97.86-57.24,97.86-57.24C352.51,494.74,453.22,545.48,541.48,547.54z"/>
		<polyline class="st0" points="306.65,821.76 255.23,792.11 255.23,459.05 539.99,624.66 539.99,953.51 540.02,956.5
			489.73,929.13 490.16,671.95 326.86,579.57 310.37,570.41 		"/>
		<path class="st2" d="M538.49,956.22"/>
		<path class="st2" d="M253.08,803.31"/>
	</g>
	<g>
		<path class="st0" d="M501.69,123.5c44.31,24.32,71.33,60.82,80.51,107.92c4.37,22.39,4.63,45.44,7.31,68.14
			c0.96,8.1,2.34,16.55,5.85,23.89c2.65,5.54,8.42,12.41,13.87,13.34c4.13,0.7,11.53-6.16,14.71-11.16
			c11.1-17.41,9.96-36.21,4.49-55.05c-1.08-3.71-2.33-7.38-2.64-11.35c32.47,35.41,55.54,74.55,54.26,122.55
			c-1.01,37.85-13.97,71.6-44.98,97.73c-16.6,13.99-36.27,22.48-62.08,25.43c14.94-11.93,23.39-23.97,22.35-40.31
			c-1.24-19.43-9.33-35.44-27.03-46.23c-9.95-6.06-20.71-11.13-31.53-15.82c-43.06-18.67-60.64-57.56-44.31-98.79
			c0.77-1.93,1.48-3.89,2.56-6.71c-25.01,16.32-49.21,73.47-46.41,107.4c3.48,42.25,29.29,72.43,62.47,99.07
			c-26.99-3-49.99-13.11-70.59-28.89c-42.18-32.32-66.07-115.03-13.27-171.74c18.63-20.01,39.13-38.54,58.99-57.55
			c24.88-23.81,34.1-52.58,29.23-84.63C513.51,147.9,506.38,135.75,501.69,123.5z"/>
	</g>
	<g>
		<path class="st1" d="M501.69,123.5c44.31,24.32,71.33,60.82,80.51,107.92c4.37,22.39,4.63,45.44,7.31,68.14
			c0.96,8.1,2.34,16.55,5.85,23.89c2.65,5.54,8.42,12.41,13.87,13.34c4.13,0.7,11.53-6.16,14.71-11.16
			c11.1-17.41,9.96-36.21,4.49-55.05c-1.08-3.71-2.33-7.38-2.64-11.35c32.47,35.41,55.54,74.55,54.26,122.55
			c-1.01,37.85-13.97,71.6-44.98,97.73c-16.6,13.99-36.27,22.48-62.08,25.43c14.94-11.93,23.39-23.97,22.35-40.31
			c-1.24-19.43-9.33-35.44-27.03-46.23c-9.95-6.06-20.71-11.13-31.53-15.82c-43.06-18.67-63.5-58.66-41.75-105.5
			c14.71-31.69,41.36-59.69,44.28-80.51c3.89-27.8-7.75-55.21-24.6-60.27L501.69,123.5z"/>
	</g>
</g>
</svg>
